<svg id="illustration_-_message_sent" data-name="illustration - message sent" xmlns="http://www.w3.org/2000/svg" width="250" height="250" viewBox="0 0 250 250">
  <circle id="Ellipse_819" data-name="Ellipse 819" cx="125" cy="125" r="125" fill="#4ec1ef"/>
  <g id="Group_11352" data-name="Group 11352" transform="translate(180.611 33.098)" opacity="0.1">
    <path id="Path_13370" data-name="Path 13370" d="M2104.272,533.463a124.033,124.033,0,0,0-40.583-91.9l-28.044,203.093A124.349,124.349,0,0,0,2104.272,533.463Z" transform="translate(-2035.645 -441.561)" fill="#fff"/>
  </g>
  <g id="Group_11353" data-name="Group 11353" transform="translate(7.074 164.569)" opacity="0.1">
    <path id="Path_13371" data-name="Path 13371" d="M1937.271,690.216A124.407,124.407,0,0,0,2055.2,605.429h-235.85A124.407,124.407,0,0,0,1937.271,690.216Z" transform="translate(-1819.346 -605.429)" fill="#231f20"/>
  </g>
  <g id="Group_11354" data-name="Group 11354" transform="translate(64.91 133.138)">
    <path id="Path_13372" data-name="Path 13372" d="M1896.372,605.068l-4.939-20.908,168.741,11.1Z" transform="translate(-1891.433 -569.792)" fill="#e9ddc5"/>
    <path id="Path_13373" data-name="Path 13373" d="M1911.423,566.252l-19.99,14.367,168.741,11.1Z" transform="translate(-1891.433 -566.252)" fill="#fff5e2"/>
  </g>
  <g id="Group_11356" data-name="Group 11356" transform="translate(54.881 26.386)">
    <path id="Path_13013" data-name="Path 13013" d="M1927.913,599.778l4.611.567,1.727-5.447-4.5-1.43Z" transform="translate(-1888.615 -464.881)" fill="#44484f"/>
    <path id="Path_13019" data-name="Path 13019" d="M1940.546,606c-2.522.363-7.1-5.712-7.979-6.85,0,0-1.546,1.084-4.611-.774-2.416.736-3.13,5.737-3.321,7.738a.944.944,0,0,0,.723,1.01l3.792.893a.8.8,0,0,0,.968-.592v0l.05-.21,4.016,2.164c4.016,2.164,9.26.961,9.26.961l.306-1.668C1944.052,607,1943.066,605.636,1940.546,606Z" transform="translate(-1887.966 -465.851)" fill="#332727"/>
    <path id="Path_13020" data-name="Path 13020" d="M1932.039,603.895a4.973,4.973,0,0,0,3.147,2.826,7.441,7.441,0,0,0,6.037-.376c-2.141-.559-5.133-4.133-6.553-5.936C1933.148,601.023,1931.457,602.116,1932.039,603.895Z" transform="translate(-1889.408 -466.253)" fill="#fff" opacity="0.05" style="mix-blend-mode: normal;isolation: isolate"/>
    <g id="Group_11355" data-name="Group 11355" transform="translate(88.927 123.824)">
      <path id="Path_13007" data-name="Path 13007" d="M1991.211,594.863l4.312-1.728-1.114-5.6-4.635.922Z" transform="translate(-1989.772 -587.53)" fill="#44484f"/>
      <path id="Path_13008" data-name="Path 13008" d="M2005.411,593.887c-2.034,1.536-8.974-1.576-10.293-2.151,0,0-.831,1.7-4.413,1.548-1.8,1.852.113,6.759.88,8.505a.793.793,0,0,0,.943.444l4.109-1.147a.56.56,0,0,0,.389-.691l-.123-.44,4.562-.042c4.562-.042,8.574-3.626,8.574-3.626l-.536-1.609C2008.967,593.07,2007.445,592.351,2005.411,593.887Z" transform="translate(-1989.808 -588.362)" fill="#332727"/>
      <path id="Path_13009" data-name="Path 13009" d="M1990.268,590.665a9.838,9.838,0,0,0,4.506-1.294l-.366-1.839-4.636.921Z" transform="translate(-1989.772 -587.53)" opacity="0.1" style="mix-blend-mode: normal;isolation: isolate"/>
      <path id="Path_13010" data-name="Path 13010" d="M2006.749,594.008c-1.679,1.268-6.709-.635-9.15-1.658-2.909,4.009,2.018,6.432,5.834,5.58a18.164,18.164,0,0,0,7.348-3.287C2010.2,593.148,2008.713,592.525,2006.749,594.008Z" transform="translate(-1991.146 -588.483)" fill="#fff" opacity="0.05" style="mix-blend-mode: normal;isolation: isolate"/>
    </g>
    <g id="Group_11160" data-name="Group 11160" transform="translate(75.824 41.266)">
      <path id="Path_13003" data-name="Path 13003" d="M2007.42,489.089c-3.9,1.3-6.692,2.648-10.247,3.305-15.638,2.885-24.469.546-23.686.481l1.413-6.646c-1.166-.018,11.266,2.242,32.541-1.6Z" transform="translate(-1973.439 -484.629)" fill="#f69d85"/>
    </g>
    <g id="Group_11161" data-name="Group 11161" transform="translate(59.877 36.094)">
      <path id="Path_13004" data-name="Path 13004" d="M1972.521,485.214c-4.587-2.066-10.517-4.255-14.713-7.031l-4.245,5.306c.391.335,9.526,9.217,22.365,9C1973.3,490.038,1972.325,487.856,1972.521,485.214Z" transform="translate(-1953.563 -478.183)" fill="#f59278"/>
    </g>
    <path id="Path_13054" data-name="Path 13054" d="M2011.673,490.37l1.252-.364a.325.325,0,0,0,.229-.376L2012.1,484.3l-2.27.393,1.533,5.5a.249.249,0,0,0,.3.176Z" transform="translate(-1904.81 -443.299)" fill="#512527"/>
    <path id="Path_13055" data-name="Path 13055" d="M2008.951,484.85l.207.907a.245.245,0,0,0,.294.185h0l3.186-.726a.246.246,0,0,0,.186-.29l-.206-.983a.246.246,0,0,0-.291-.19l-.01,0-3.187.8A.246.246,0,0,0,2008.951,484.85Z" transform="translate(-1904.635 -443.189)" fill="#512527"/>
    <path id="Path_13056" data-name="Path 13056" d="M2012.533,483.809a.243.243,0,0,0-.216-.055l-3.187.8a.246.246,0,0,0-.178.294l.207.907a.248.248,0,0,0,.044.091Q2010.868,484.831,2012.533,483.809Z" transform="translate(-1904.635 -443.189)" fill="#fff" opacity="0.11" style="mix-blend-mode: normal;isolation: isolate"/>
    <g id="Group_11160-2" data-name="Group 11160" transform="translate(10.916 43.88)">
      <path id="Path_13003-2" data-name="Path 13003" d="M1892.538,515.188c1.739-3.73,2.675-6.681,4.641-9.715,8.652-13.341,16.421-18.148,15.931-17.535l3.857,5.594c.814-.835-9,6.56-20.834,24.655Z" transform="translate(-1892.538 -487.887)" fill="#f69d85"/>
    </g>
    <g id="Group_11161-2" data-name="Group 11161" transform="translate(26.463 37.888)">
      <path id="Path_13004-2" data-name="Path 13004" d="M1919.543,493c4.653-1.911,10.32-4.714,15.219-5.854l-.936-6.73c-.513.055-13.242.585-21.911,10.058C1915.5,490.253,1917.758,491.045,1919.543,493Z" transform="translate(-1911.915 -480.419)" fill="#f59278"/>
    </g>
    <g id="Group_11162" data-name="Group 11162" transform="translate(60.648 34.656)">
      <path id="Path_13005" data-name="Path 13005" d="M1966.969,488.015c.582-1.144,2.04-3.677,2.658-4.912a49.855,49.855,0,0,0-13.334-6.713l-1.769,8.449c3.5,2.848,6.64,4.3,10.945,6.063C1965.9,490.076,1966.547,488.844,1966.969,488.015Z" transform="translate(-1954.524 -476.39)" fill="#51254b"/>
    </g>
    <path id="Path_13006" data-name="Path 13006" d="M1935.516,476.9a20.917,20.917,0,0,1,8.625-1.922c4.962-.029,6.067.984,6.067.984s1.246,5.454-7.866,4.9S1935.516,476.9,1935.516,476.9Z" transform="translate(-1890.068 -441.454)" fill="#f69b83"/>
    <path id="Path_13011" data-name="Path 13011" d="M1931.916,528.844l.643,8.56s22.143.96,23.15-1.819c.772-2.128-.029-7.342-.029-7.342Z" transform="translate(-1889.407 -451.986)" fill="#1c2328"/>
    <g id="Group_11163" data-name="Group 11163" transform="translate(61.454 76.997)">
      <path id="Path_13012" data-name="Path 13012" d="M1955.529,537.392c.07.033,5.235,3.789,15.024,13.11,5.068,4.825,7.351,17.742,10.668,28.23a.9.9,0,0,0,1.067.694l.043-.01L1988.7,577a1.2,1.2,0,0,0,.809-1.394c-3.293-10.726-7.634-26.738-12.646-31.445a159.935,159.935,0,0,0-18.288-15Z" transform="translate(-1955.529 -529.165)" fill="#1c2328"/>
    </g>
    <g id="Group_11163-2" data-name="Group 11163" transform="translate(38.843 82.996)">
      <path id="Path_13012-2" data-name="Path 13012" d="M1931.659,539.107c.036.069,1.83,6.2,3.885,19.557,1.064,6.916-4.329,13.245-8.11,23.575a.9.9,0,0,0,.421,1.2l.039.018,6.52,1.983a1.2,1.2,0,0,0,1.492-.61c3.946-10.5,8.533-20.453,8.508-27.329-.044-12.271-.048-16.568-1.282-20.861Z" transform="translate(-1927.346 -536.642)" fill="#1c2328"/>
    </g>
    <path id="Path_13018" data-name="Path 13018" d="M1931.916,528.844l.62,7.338c3.669,1.948,19.271,2,23.507-3.476-.1-1.556-.363-4.461-.363-4.461Z" transform="translate(-1889.407 -451.986)" opacity="0.17" style="mix-blend-mode: normal;isolation: isolate"/>
    <path id="Path_13021" data-name="Path 13021" d="M1940.71,469.013l.571,5.878c.124,1.421.988,1.662,2.4,1.541l.653-.057a2.43,2.43,0,0,0,2.427-2.435c0-.037,0-.074,0-.11l-.575-5.975C1944.352,468.248,1942.526,468.69,1940.71,469.013Z" transform="translate(-1891.145 -440.047)" fill="#f69b83"/>
    <path id="Path_13022" data-name="Path 13022" d="M1940.71,469.013l.344,3.544a6.657,6.657,0,0,0,5.531-.517l-.4-4.184C1944.352,468.248,1942.526,468.69,1940.71,469.013Z" transform="translate(-1891.145 -440.047)" fill="#f59278"/>
    <path id="Path_13023" data-name="Path 13023" d="M1954.643,502.255c-.623-10.292-.181-24.14-.182-24.144-.281-1.026-5.587-2.624-8.5-2.908a5.247,5.247,0,0,1-5.635,3.431,5.615,5.615,0,0,1-4.142-2.745c-4.895,1-9.519,3.615-10.331,7.027-2.348,9.887,1.61,24.131,3.023,39.312.236,2.585,26.67,2.786,27.1-4.912C1955.993,517.047,1954.948,507.278,1954.643,502.255Z" transform="translate(-1888.064 -441.5)" fill="#602c56"/>
    <path id="Path_13024" data-name="Path 13024" d="M1950.295,514.093c1.311-1.766,2.624-3.537,3.956-5.291q-2.284-4.9-4.285-9.917c-3.363-.779-6.733-1.533-10.1-2.3-4.012-.921-8.021-1.876-12-2.96-.9-.246-1.819-.48-2.735-.713-.133,9.185,2.619,20.7,3.746,32.823.111,1.191,5.78,1.874,11.905,1.515Q1945.478,520.624,1950.295,514.093Z" transform="translate(-1888.066 -445)" opacity="0.09" style="mix-blend-mode: normal;isolation: isolate"/>
    <path id="Path_13025" data-name="Path 13025" d="M1949.674,511.784h0C1949.644,511.829,1949.617,511.879,1949.674,511.784Z" transform="translate(-1892.911 -448.731)" fill="#575050"/>
    <path id="Path_13026" data-name="Path 13026" d="M1949.682,511.767v0C1949.731,511.679,1949.705,511.722,1949.682,511.767Z" transform="translate(-1892.919 -448.718)" fill="#575050"/>
    <path id="Path_13027" data-name="Path 13027" d="M1949.682,511.782h0v0Z" transform="translate(-1892.919 -448.73)" fill="#575050"/>
    <path id="Path_13028" data-name="Path 13028" d="M1957.772,455.815c1.073.2,1.725,1.529,1.458,2.972s-1.353,2.451-2.424,2.253-1.726-1.529-1.459-2.973S1956.7,455.616,1957.772,455.815Z" transform="translate(-1894.027 -437.661)" fill="#f59278"/>
    <path id="Path_13029" data-name="Path 13029" d="M1940.963,440.431l3.637.089c4.791.117,8.557,5.525,8.439,10.315l-.162,6.57a8.738,8.738,0,0,1-8.925,8.5l-3.637-.09a8.738,8.738,0,0,1-8.5-8.926l.161-6.569C1932.1,445.525,1936.172,440.313,1940.963,440.431Z" transform="translate(-1889.386 -434.624)" fill="#f69d85"/>
    <path id="Path_13030" data-name="Path 13030" d="M1929.694,437.591a1.522,1.522,0,0,1,1.138.2,4.485,4.485,0,0,1-.42-2.545,1.421,1.421,0,0,1,1.358,1.295,2.142,2.142,0,0,1,.383-1.66.308.308,0,0,1,.16-.131c.127-.034.238.083.314.19a4.2,4.2,0,0,1,.3,1.358c-.079.063-.089.08,0,.041l0-.041a22.491,22.491,0,0,1,3.761-1.95,13.534,13.534,0,0,1,6.356-.882,7.312,7.312,0,0,1-.865,2.014,9.347,9.347,0,0,1,6.957-2.244,6.888,6.888,0,0,1-.388,1.82,2.235,2.235,0,0,1-1.109,1.313,10.4,10.4,0,0,1,6.194-1.563.328.328,0,0,1,.357.383,6.826,6.826,0,0,1-1.091,3.849,1.637,1.637,0,0,1,.806-.463,5.821,5.821,0,0,1,.337,3.176,24.2,24.2,0,0,1-1.306,5.6,19.245,19.245,0,0,1-.379,4.182s.008-.156.01-.391l-.01.391c-.1,0-1.005-6.077-3.187-7.585-2.79-1.933-2.57.688-6.312.059-2.49-.42-5.995-2.437-8.159,1.563-.649,1.2-.389,3.594-.881,4.762a2.976,2.976,0,0,1-2.541,1.581l.057-1.086a23.459,23.459,0,0,1-.2-2.694h0c-1.933-2.506-1.682-7.368-1.04-9.5.034-.112-.028-.1-.028-.1S1929.538,437.863,1929.694,437.591Z" transform="translate(-1888.963 -433.194)" fill="#562112"/>
    <path id="Path_13031" data-name="Path 13031" d="M1934.55,445.489c1.243-1.325,2.709-2.915,4.669-2.675,1.555.19,2.7,1.315,3.777,1.548,2.482.538,3.377-1.257,5.675-1.213,3.018.058,3.949,3.715,4.686,6.26a19.494,19.494,0,0,1-.382,4.015s.007-.155.009-.39l-.009.39c-.1,0-1.006-6.076-3.187-7.585-2.79-1.932-2.57.688-6.312.059-2.49-.42-5.995-2.437-8.159,1.563-.649,1.2-.389,3.594-.88,4.762a2.978,2.978,0,0,1-2.542,1.581l.036-1.448a17.4,17.4,0,0,1-.171-2.33A27.536,27.536,0,0,1,1934.55,445.489Z" transform="translate(-1889.376 -435.091)" opacity="0.15" style="mix-blend-mode: normal;isolation: isolate"/>
    <path id="Path_13032" data-name="Path 13032" d="M1930.068,454.613c1.049-.278,2.2.642,2.579,2.054s-.175,2.782-1.224,3.061-2.2-.642-2.579-2.054S1929.018,454.891,1930.068,454.613Z" transform="translate(-1888.776 -437.419)" fill="#f69d85"/>
    <path id="Path_13033" data-name="Path 13033" d="M1931.208,458.356a4.351,4.351,0,0,0,.873.021c.644,5.416,3.94,9.332,9.821,9.631,6.642.342,8.5-2.868,10.213-6.067a8.736,8.736,0,0,1-8.773,7.14l-3.637-.09a8.736,8.736,0,0,1-8.493-8.853,2.472,2.472,0,0,1-2.366-2.08,3.292,3.292,0,0,1-.046-1.541A3.279,3.279,0,0,0,1931.208,458.356Z" transform="translate(-1888.776 -437.805)" fill="#f59278"/>
    <path id="Path_13034" data-name="Path 13034" d="M1942,462.756l7.209.191a.656.656,0,0,1,.571.732.664.664,0,0,1-.065.216c-.873,2.027-2.506,3.394-4.306,3.347s-3.308-1.5-3.994-3.566a.682.682,0,0,1,.4-.879A.664.664,0,0,1,1942,462.756Z" transform="translate(-1891.276 -439.039)" fill="#fff"/>
    <path id="Path_13035" data-name="Path 13035" d="M1953.024,454.667c.692-.065,1.275.8,1.3,1.93s-.514,2.1-1.207,2.16-1.275-.8-1.3-1.93S1952.329,454.731,1953.024,454.667Z" transform="translate(-1893.341 -437.439)" fill="#562112"/>
    <path id="Path_13036" data-name="Path 13036" d="M1939.885,454.131c.693-.081,1.281.789,1.324,1.945s-.492,2.158-1.183,2.24-1.285-.789-1.324-1.946S1939.193,454.213,1939.885,454.131Z" transform="translate(-1890.748 -437.332)" fill="#562112"/>
    <path id="Path_13037" data-name="Path 13037" d="M1954.325,456.8c.026,1.129-.514,2.1-1.207,2.16-.609.056-1.131-.6-1.268-1.531.33-.221,1.84-1.353,2.244-1.727A2.921,2.921,0,0,1,1954.325,456.8Z" transform="translate(-1893.348 -437.645)" fill="#fff" opacity="0.08" style="mix-blend-mode: normal;isolation: isolate"/>
    <path id="Path_13038" data-name="Path 13038" d="M1941.231,456.325c.038,1.155-.492,2.158-1.183,2.24-.562.065-1.05-.5-1.237-1.332.742-.62,1.48-1.244,2.234-1.844A3.076,3.076,0,0,1,1941.231,456.325Z" transform="translate(-1890.77 -437.582)" fill="#fff" opacity="0.08" style="mix-blend-mode: normal;isolation: isolate"/>
    <g id="Group_11170" data-name="Group 11170" transform="translate(30.282 35.619)">
      <path id="Path_13049" data-name="Path 13049" d="M1916.676,486.137c1.008.889,5.119,5.425,5.8,6a103.785,103.785,0,0,1,10.137-6.824l-.96-7.722C1928.552,478.355,1923.426,480.208,1916.676,486.137Z" transform="translate(-1916.676 -477.59)" fill="#602c56"/>
    </g>
    <path id="Path_13050" data-name="Path 13050" d="M1941.2,483.612c3.135-.836,6.166-2.353,7.91-5.2a11.039,11.039,0,0,0,.934-2.257,26.055,26.055,0,0,0-4.516-.951,5.247,5.247,0,0,1-5.635,3.43,5.612,5.612,0,0,1-4.142-2.744,21.95,21.95,0,0,0-4.089,1.255v0a30.022,30.022,0,0,0-8.735,5.44C1928.844,484.232,1935.206,485.211,1941.2,483.612Z" transform="translate(-1887.63 -441.5)" fill="#fff" opacity="0.08" style="mix-blend-mode: normal;isolation: isolate"/>
    <path id="Path_13374" data-name="Path 13374" d="M1892.08,517.644a11.493,11.493,0,0,1-3.06,4.122c-1.919,1.43-5.4,3.4-6.461,4.423s-3.312,6.845-3.589,8,.976.057,2.119-1.418a16.8,16.8,0,0,1,6.089-4.163c1.028-.326,1.962-.735,2.028.309s.059,3.359.034,4.714c-.029,1.522.4,1.269,1.26-.356a47.763,47.763,0,0,0,3.1-8.04,37.442,37.442,0,0,1,2.336-5.911Z" transform="translate(-1878.932 -449.89)" fill="#f69d85"/>
    <path id="Path_13375" data-name="Path 13375" d="M2013.666,484.022a9.107,9.107,0,0,0,3.911-1.1,37.752,37.752,0,0,1,5.18-2.156c1.057-.493,6-.52,6.927-.4s-.234.739-1.645,1.168a13.288,13.288,0,0,0-4.8,3.33c-.531.667-1.1,1.244-.344,1.587s2.468.991,3.477,1.353c1.134.408.825.655-.619.832a37.821,37.821,0,0,1-6.821.03,29.562,29.562,0,0,0-5.03.062Z" transform="translate(-1905.569 -442.508)" fill="#f69d85"/>
  </g>
  <g id="Group_11357" data-name="Group 11357" transform="translate(19.818 156.53)">
    <path id="Path_13376" data-name="Path 13376" d="M1897.589,607.8l5.572,26.942,158.229-36.751Z" transform="translate(-1847.559 -595.92)" fill="#e9ddc5"/>
    <path id="Path_13377" data-name="Path 13377" d="M1835.23,618.881l33.529-23.473,180.3,2.074Z" transform="translate(-1835.23 -595.409)" fill="#fff5e2"/>
  </g>
  <path id="Path_13378" data-name="Path 13378" d="M2075.443,529.328c.056-.136.1-.276.149-.419l.014-.043c.04-.136.075-.276.1-.417.006-.024.012-.047.017-.071.026-.134.045-.27.061-.408,0-.032.01-.063.013-.1a5.12,5.12,0,0,0,.026-.512,4.558,4.558,0,0,0-4.3-4.774,3.944,3.944,0,0,0-2.026.564,7.006,7.006,0,0,0,.172-1.512c0-3.423-2.5-6.2-5.578-6.2a5.18,5.18,0,0,0-3.147,1.078,9.606,9.606,0,0,0-8.95-7.084c-4.754,0-8.69,3.89-9.367,8.958a3.642,3.642,0,0,0-2.761-1.312,4.049,4.049,0,0,0-3.821,4.244,4.787,4.787,0,0,0,.085.885c-.059-.055-.128-.1-.192-.149l0-.01c-.046-.037-.1-.065-.144-.1-.1-.072-.193-.144-.3-.206-.088-.053-.18-.1-.271-.142s-.19-.1-.291-.138a3.485,3.485,0,0,0-.366-.112c-.082-.022-.161-.052-.244-.068a3.45,3.45,0,0,0-.653-.064,4.047,4.047,0,0,0-3.819,4.243c0,.141.008.281.017.422,0-.012.013-.022.018-.034a3.99,3.99,0,0,0,3.785,3.854,3.513,3.513,0,0,0,1.957-.6c.1,3.322,2.553,5.98,5.569,5.98a5.176,5.176,0,0,0,3.156-1.088c.161,3.947,3.09,7.092,6.686,7.092a6.976,6.976,0,0,0,6.637-6.495,6.325,6.325,0,0,0,4.478,1.906,6.87,6.87,0,0,0,6.485-5.6,4.052,4.052,0,0,0,2.878,1.234,4.3,4.3,0,0,0,3.914-2.8v0Z" transform="translate(-1853.891 -421.883)" fill="#e2f3f8"/>
  <g id="Group_11358" data-name="Group 11358" transform="translate(100.436 72.984)">
    <path id="Path_13379" data-name="Path 13379" d="M1951.361,507.345l-.259-3.07,2.688-.227.072.84.1,1.258a3.649,3.649,0,0,1-3.3,3.947c-3.509.317-11.1.939-11.1.939a2.482,2.482,0,0,1-2.327-3.768l4.647-7.905,3.281-.278c-.7,1.219-4.557,7.717-5.439,9.254C1939.731,508.335,1949.73,507.487,1951.361,507.345Z" transform="translate(-1935.942 -492.819)" fill="#f9a236"/>
    <path id="Path_13380" data-name="Path 13380" d="M1938.329,494.971l.259,3.07-2.689.228-.071-.841-.1-1.258a3.65,3.65,0,0,1,3.3-3.947c3.509-.316,11.1-.939,11.1-.939a2.482,2.482,0,0,1,2.327,3.768l-4.647,7.905-3.281.277c.7-1.218,4.557-7.717,5.439-9.254C1949.959,493.981,1939.96,494.829,1938.329,494.971Z" transform="translate(-1935.712 -491.276)" fill="#f9a236"/>
  </g>
  <g id="Group_11359" data-name="Group 11359" transform="translate(8.631 28.602)" opacity="0.25" style="mix-blend-mode: overlay;isolation: isolate">
    <circle id="Ellipse_820" data-name="Ellipse 820" cx="1.716" cy="1.716" r="1.716" transform="translate(46.716)" fill="#fff"/>
    <circle id="Ellipse_821" data-name="Ellipse 821" cx="1.716" cy="1.716" r="1.716" transform="translate(46.716 11.679)" fill="#fff"/>
    <circle id="Ellipse_822" data-name="Ellipse 822" cx="1.716" cy="1.716" r="1.716" transform="translate(46.716 23.358)" fill="#fff"/>
    <circle id="Ellipse_823" data-name="Ellipse 823" cx="1.716" cy="1.716" r="1.716" transform="translate(46.716 35.037)" fill="#fff"/>
    <circle id="Ellipse_824" data-name="Ellipse 824" cx="1.716" cy="1.716" r="1.716" transform="translate(46.716 46.716)" fill="#fff"/>
    <circle id="Ellipse_825" data-name="Ellipse 825" cx="1.716" cy="1.716" r="1.716" transform="translate(46.716 58.395)" opacity="0.03"/>
    <circle id="Ellipse_826" data-name="Ellipse 826" cx="1.716" cy="1.716" r="1.716" transform="translate(46.716 70.074)" fill="#fff"/>
    <circle id="Ellipse_827" data-name="Ellipse 827" cx="1.716" cy="1.716" r="1.716" transform="translate(46.716 81.753)" fill="#fff"/>
    <circle id="Ellipse_828" data-name="Ellipse 828" cx="1.716" cy="1.716" r="1.716" transform="translate(46.716 93.432)" fill="#fff"/>
    <circle id="Ellipse_829" data-name="Ellipse 829" cx="1.716" cy="1.716" r="1.716" transform="translate(46.716 105.111)" fill="#fff"/>
    <circle id="Ellipse_830" data-name="Ellipse 830" cx="1.716" cy="1.716" r="1.716" transform="translate(46.716 116.79)" fill="#fff"/>
    <path id="Path_13381" data-name="Path 13381" d="M1867.5,436.2a1.717,1.717,0,1,1-2.436,2.051Z" transform="translate(-1829.94 -436.006)" fill="#fff"/>
    <circle id="Ellipse_831" data-name="Ellipse 831" cx="1.716" cy="1.716" r="1.716" transform="translate(35.037 11.679)" fill="#fff"/>
    <circle id="Ellipse_832" data-name="Ellipse 832" cx="1.716" cy="1.716" r="1.716" transform="translate(35.037 23.358)" fill="#fff"/>
    <circle id="Ellipse_833" data-name="Ellipse 833" cx="1.716" cy="1.716" r="1.716" transform="translate(35.037 35.037)" fill="#fff"/>
    <circle id="Ellipse_834" data-name="Ellipse 834" cx="1.716" cy="1.716" r="1.716" transform="translate(35.037 46.716)" fill="#fff"/>
    <circle id="Ellipse_835" data-name="Ellipse 835" cx="1.716" cy="1.716" r="1.716" transform="translate(35.037 58.395)" fill="#fff"/>
    <circle id="Ellipse_836" data-name="Ellipse 836" cx="1.716" cy="1.716" r="1.716" transform="translate(35.037 70.074)" fill="#fff"/>
    <circle id="Ellipse_837" data-name="Ellipse 837" cx="1.716" cy="1.716" r="1.716" transform="translate(35.037 81.753)" fill="#fff"/>
    <circle id="Ellipse_838" data-name="Ellipse 838" cx="1.716" cy="1.716" r="1.716" transform="translate(35.037 93.432)" fill="#fff"/>
    <circle id="Ellipse_839" data-name="Ellipse 839" cx="1.716" cy="1.716" r="1.716" transform="translate(35.037 105.111)" fill="#fff"/>
    <circle id="Ellipse_840" data-name="Ellipse 840" cx="1.716" cy="1.716" r="1.716" transform="translate(35.037 116.79)" fill="#fff"/>
    <path id="Path_13382" data-name="Path 13382" d="M1852.372,450.535a1.716,1.716,0,1,1-1.913,2.1C1850.454,452.619,1852.372,450.535,1852.372,450.535Z" transform="translate(-1827.053 -438.839)" fill="#fff"/>
    <circle id="Ellipse_841" data-name="Ellipse 841" cx="1.716" cy="1.716" r="1.716" transform="translate(23.358 23.358)" fill="#fff"/>
    <circle id="Ellipse_842" data-name="Ellipse 842" cx="1.716" cy="1.716" r="1.716" transform="translate(23.358 35.037)" fill="#fff"/>
    <circle id="Ellipse_843" data-name="Ellipse 843" cx="1.716" cy="1.716" r="1.716" transform="translate(23.358 46.716)" fill="#fff"/>
    <circle id="Ellipse_844" data-name="Ellipse 844" cx="1.716" cy="1.716" r="1.716" transform="translate(23.358 58.395)" fill="#fff"/>
    <circle id="Ellipse_845" data-name="Ellipse 845" cx="1.716" cy="1.716" r="1.716" transform="translate(23.358 70.074)" fill="#fff"/>
    <circle id="Ellipse_846" data-name="Ellipse 846" cx="1.716" cy="1.716" r="1.716" transform="translate(23.358 81.753)" fill="#fff"/>
    <circle id="Ellipse_847" data-name="Ellipse 847" cx="1.716" cy="1.716" r="1.716" transform="translate(23.358 93.432)" fill="#fff"/>
    <circle id="Ellipse_848" data-name="Ellipse 848" cx="1.716" cy="1.716" r="1.716" transform="translate(23.358 105.111)" fill="#fff"/>
    <circle id="Ellipse_849" data-name="Ellipse 849" cx="1.716" cy="1.716" r="1.716" transform="translate(23.358 116.79)" fill="#fff"/>
    <circle id="Ellipse_850" data-name="Ellipse 850" cx="1.716" cy="1.716" r="1.716" transform="translate(11.679 35.037)" fill="#fff"/>
    <circle id="Ellipse_851" data-name="Ellipse 851" cx="1.716" cy="1.716" r="1.716" transform="translate(11.679 46.716)" fill="#fff"/>
    <circle id="Ellipse_852" data-name="Ellipse 852" cx="1.716" cy="1.716" r="1.716" transform="translate(11.679 58.395)" fill="#fff"/>
    <circle id="Ellipse_853" data-name="Ellipse 853" cx="1.716" cy="1.716" r="1.716" transform="translate(11.679 70.074)" fill="#fff"/>
    <circle id="Ellipse_854" data-name="Ellipse 854" cx="1.716" cy="1.716" r="1.716" transform="translate(11.679 81.753)" fill="#fff"/>
    <circle id="Ellipse_855" data-name="Ellipse 855" cx="1.716" cy="1.716" r="1.716" transform="translate(11.679 93.432)" fill="#fff"/>
    <circle id="Ellipse_856" data-name="Ellipse 856" cx="1.716" cy="1.716" r="1.716" transform="translate(11.679 105.111)" fill="#fff"/>
    <circle id="Ellipse_857" data-name="Ellipse 857" cx="1.716" cy="1.716" r="1.716" transform="translate(11.679 116.79)" fill="#fff"/>
    <path id="Path_13383" data-name="Path 13383" d="M1823.815,494.307a1.717,1.717,0,1,1-1.325,3.163Z" transform="translate(-1821.524 -447.493)" fill="#fff"/>
    <circle id="Ellipse_858" data-name="Ellipse 858" cx="1.716" cy="1.716" r="1.716" transform="translate(0 58.395)" fill="#fff"/>
    <circle id="Ellipse_859" data-name="Ellipse 859" cx="1.716" cy="1.716" r="1.716" transform="translate(0 70.074)" fill="#fff"/>
    <circle id="Ellipse_860" data-name="Ellipse 860" cx="1.716" cy="1.716" r="1.716" transform="translate(0 81.753)" fill="#fff"/>
    <circle id="Ellipse_861" data-name="Ellipse 861" cx="1.716" cy="1.716" r="1.716" transform="translate(0 93.432)" fill="#fff"/>
    <circle id="Ellipse_862" data-name="Ellipse 862" cx="1.716" cy="1.716" r="1.716" transform="translate(0 105.111)" fill="#fff"/>
    <circle id="Ellipse_863" data-name="Ellipse 863" cx="1.716" cy="1.716" r="1.716" transform="translate(0 116.79)" fill="#fff"/>
  </g>
</svg>
