<svg id="image_oops_piggy_bank" xmlns="http://www.w3.org/2000/svg" xmlns:xlink="http://www.w3.org/1999/xlink" width="225" height="225" viewBox="0 0 225 225">
  <defs>
    <clipPath id="clip-path">
      <rect id="Rectangle_1174" data-name="Rectangle 1174" width="176.54" height="138.018" fill="none"/>
    </clipPath>
    <clipPath id="clip-path-3">
      <rect id="Rectangle_1172" data-name="Rectangle 1172" width="117.186" height="14.217" transform="translate(40.195 123.801)" fill="none"/>
    </clipPath>
  </defs>
  <g id="Group_15818" data-name="Group 15818">
    <circle id="Ellipse_804" data-name="Ellipse 804" cx="112.5" cy="112.5" r="112.5" fill="#39b1b9"/>
    <g id="Group_11287" data-name="Group 11287" transform="translate(0.677 29.672)" opacity="0.1">
      <path id="Path_13255" data-name="Path 13255" d="M2515.838,2026.526a111.084,111.084,0,0,1,36.924-82.711l25.516,182.782A111.791,111.791,0,0,1,2515.838,2026.526Z" transform="translate(-2515.838 -1943.816)" fill="#fff"/>
    </g>
    <g id="Group_11288" data-name="Group 11288" transform="translate(6.422 147.289)" opacity="0.05">
      <path id="Path_13256" data-name="Path 13256" d="M2405.832,2184.826a112.227,112.227,0,0,1-106.292-77.142h212.585A112.226,112.226,0,0,1,2405.832,2184.826Z" transform="translate(-2299.539 -2107.684)" fill="#1a1717"/>
    </g>
    <g id="Group_11294" data-name="Group 11294" transform="translate(163.963 36.582)" opacity="0.25">
      <ellipse id="Ellipse_805" data-name="Ellipse 805" cx="1.561" cy="1.561" rx="1.561" ry="1.561" transform="translate(0)" fill="#fff"/>
      <ellipse id="Ellipse_805-2" data-name="Ellipse 805" cx="1.561" cy="1.561" rx="1.561" ry="1.561" transform="translate(0 -10.626)" fill="#fff"/>
      <ellipse id="Ellipse_805-3" data-name="Ellipse 805" cx="1.561" cy="1.561" rx="1.561" ry="1.561" transform="translate(10.626)" fill="#fff"/>
      <ellipse id="Ellipse_806" data-name="Ellipse 806" cx="1.561" cy="1.561" rx="1.561" ry="1.561" transform="translate(0 10.626)" fill="#fff"/>
      <ellipse id="Ellipse_807" data-name="Ellipse 807" cx="1.561" cy="1.561" rx="1.561" ry="1.561" transform="translate(0 21.252)" fill="#fff"/>
      <ellipse id="Ellipse_808" data-name="Ellipse 808" cx="1.561" cy="1.561" rx="1.561" ry="1.561" transform="translate(0 31.878)" fill="#fff"/>
      <ellipse id="Ellipse_809" data-name="Ellipse 809" cx="1.561" cy="1.561" rx="1.561" ry="1.561" transform="translate(0 42.503)" fill="#fff"/>
      <ellipse id="Ellipse_810" data-name="Ellipse 810" cx="1.561" cy="1.561" rx="1.561" ry="1.561" transform="translate(0 53.13)" fill="#050606" opacity="0.03" style="mix-blend-mode: normal;isolation: isolate"/>
      <ellipse id="Ellipse_811" data-name="Ellipse 811" cx="1.561" cy="1.561" rx="1.561" ry="1.561" transform="translate(0 63.756)" fill="#fff"/>
      <ellipse id="Ellipse_812" data-name="Ellipse 812" cx="1.561" cy="1.561" rx="1.561" ry="1.561" transform="translate(0 74.382)" fill="#fff"/>
      <ellipse id="Ellipse_813" data-name="Ellipse 813" cx="1.561" cy="1.561" rx="1.561" ry="1.561" transform="translate(0 85.008)" fill="#fff"/>
      <ellipse id="Ellipse_814" data-name="Ellipse 814" cx="1.561" cy="1.561" rx="1.561" ry="1.561" transform="translate(0 95.634)" fill="#fff"/>
      <ellipse id="Ellipse_815" data-name="Ellipse 815" cx="1.561" cy="1.561" rx="1.561" ry="1.561" transform="translate(0 106.26)" fill="#fff"/>
      <ellipse id="Ellipse_816" data-name="Ellipse 816" cx="1.561" cy="1.561" rx="1.561" ry="1.561" transform="translate(10.626 10.626)" fill="#fff"/>
      <ellipse id="Ellipse_816-2" data-name="Ellipse 816" cx="1.561" cy="1.561" rx="1.561" ry="1.561" transform="translate(21.252 10.626)" fill="#fff"/>
      <ellipse id="Ellipse_817" data-name="Ellipse 817" cx="1.561" cy="1.561" rx="1.561" ry="1.561" transform="translate(10.626 21.252)" fill="#fff"/>
      <ellipse id="Ellipse_818" data-name="Ellipse 818" cx="1.561" cy="1.561" rx="1.561" ry="1.561" transform="translate(10.626 31.878)" fill="#fff"/>
      <ellipse id="Ellipse_819" data-name="Ellipse 819" cx="1.561" cy="1.561" rx="1.561" ry="1.561" transform="translate(10.626 42.503)" fill="#fff"/>
      <ellipse id="Ellipse_820" data-name="Ellipse 820" cx="1.561" cy="1.561" rx="1.561" ry="1.561" transform="translate(10.626 53.13)" fill="#fff"/>
      <ellipse id="Ellipse_820-2" data-name="Ellipse 820" cx="1.561" cy="1.561" rx="1.561" ry="1.561" transform="translate(0 53.13)" fill="#fff"/>
      <ellipse id="Ellipse_821" data-name="Ellipse 821" cx="1.561" cy="1.561" rx="1.561" ry="1.561" transform="translate(10.626 63.756)" fill="#fff"/>
      <ellipse id="Ellipse_822" data-name="Ellipse 822" cx="1.561" cy="1.561" rx="1.561" ry="1.561" transform="translate(10.626 74.382)" fill="#fff"/>
      <ellipse id="Ellipse_823" data-name="Ellipse 823" cx="1.561" cy="1.561" rx="1.561" ry="1.561" transform="translate(10.626 85.008)" fill="#fff"/>
      <ellipse id="Ellipse_824" data-name="Ellipse 824" cx="1.561" cy="1.561" rx="1.561" ry="1.561" transform="translate(10.626 95.634)" fill="#fff"/>
      <ellipse id="Ellipse_826" data-name="Ellipse 826" cx="1.561" cy="1.561" rx="1.561" ry="1.561" transform="translate(21.252 21.252)" fill="#fff"/>
      <ellipse id="Ellipse_826-2" data-name="Ellipse 826" cx="1.561" cy="1.561" rx="1.561" ry="1.561" transform="translate(31.878 21.252)" fill="#fff"/>
      <ellipse id="Ellipse_827" data-name="Ellipse 827" cx="1.561" cy="1.561" rx="1.561" ry="1.561" transform="translate(21.252 31.878)" fill="#fff"/>
      <ellipse id="Ellipse_828" data-name="Ellipse 828" cx="1.561" cy="1.561" rx="1.561" ry="1.561" transform="translate(21.252 42.503)" fill="#fff"/>
      <ellipse id="Ellipse_829" data-name="Ellipse 829" cx="1.561" cy="1.561" rx="1.561" ry="1.561" transform="translate(21.252 53.13)" fill="#fff"/>
      <ellipse id="Ellipse_830" data-name="Ellipse 830" cx="1.561" cy="1.561" rx="1.561" ry="1.561" transform="translate(21.252 63.756)" fill="#fff"/>
      <ellipse id="Ellipse_831" data-name="Ellipse 831" cx="1.561" cy="1.561" rx="1.561" ry="1.561" transform="translate(21.252 74.382)" fill="#fff"/>
      <ellipse id="Ellipse_832" data-name="Ellipse 832" cx="1.561" cy="1.561" rx="1.561" ry="1.561" transform="translate(21.252 85.008)" fill="#fff"/>
      <ellipse id="Ellipse_833" data-name="Ellipse 833" cx="1.561" cy="1.561" rx="1.561" ry="1.561" transform="translate(21.252 95.634)" fill="#fff"/>
      <ellipse id="Ellipse_835" data-name="Ellipse 835" cx="1.561" cy="1.561" rx="1.561" ry="1.561" transform="translate(31.878 31.878)" fill="#fff"/>
      <ellipse id="Ellipse_836" data-name="Ellipse 836" cx="1.561" cy="1.561" rx="1.561" ry="1.561" transform="translate(31.878 42.503)" fill="#fff"/>
      <ellipse id="Ellipse_836-2" data-name="Ellipse 836" cx="1.561" cy="1.561" rx="1.561" ry="1.561" transform="translate(42.504 42.503)" fill="#fff"/>
      <ellipse id="Ellipse_837" data-name="Ellipse 837" cx="1.561" cy="1.561" rx="1.561" ry="1.561" transform="translate(31.878 53.13)" fill="#fff"/>
      <ellipse id="Ellipse_838" data-name="Ellipse 838" cx="1.561" cy="1.561" rx="1.561" ry="1.561" transform="translate(31.878 63.756)" fill="#fff"/>
      <ellipse id="Ellipse_839" data-name="Ellipse 839" cx="1.561" cy="1.561" rx="1.561" ry="1.561" transform="translate(31.878 74.382)" fill="#fff"/>
      <ellipse id="Ellipse_840" data-name="Ellipse 840" cx="1.561" cy="1.561" rx="1.561" ry="1.561" transform="translate(31.878 85.008)" fill="#fff"/>
      <ellipse id="Ellipse_841" data-name="Ellipse 841" cx="1.561" cy="1.561" rx="1.561" ry="1.561" transform="translate(31.878 95.634)" fill="#fff"/>
      <ellipse id="Ellipse_843" data-name="Ellipse 843" cx="1.561" cy="1.561" rx="1.561" ry="1.561" transform="translate(42.504 53.13)" fill="#fff"/>
      <ellipse id="Ellipse_844" data-name="Ellipse 844" cx="1.561" cy="1.561" rx="1.561" ry="1.561" transform="translate(42.504 63.756)" fill="#fff"/>
      <ellipse id="Ellipse_845" data-name="Ellipse 845" cx="1.561" cy="1.561" rx="1.561" ry="1.561" transform="translate(42.504 74.382)" fill="#fff"/>
      <ellipse id="Ellipse_846" data-name="Ellipse 846" cx="1.561" cy="1.561" rx="1.561" ry="1.561" transform="translate(42.504 85.008)" fill="#fff"/>
      <ellipse id="Ellipse_847" data-name="Ellipse 847" cx="1.561" cy="1.561" rx="1.561" ry="1.561" transform="translate(42.504 95.634)" fill="#fff"/>
    </g>
  </g>
  <g id="Group_15828" data-name="Group 15828" transform="translate(15 49)">
    <g id="Group_15827" data-name="Group 15827" clip-path="url(#clip-path)">
      <g id="Group_15826" data-name="Group 15826">
        <g id="Group_15825" data-name="Group 15825" clip-path="url(#clip-path)">
          <g id="Group_15824" data-name="Group 15824" opacity="0.5">
            <g id="Group_15823" data-name="Group 15823">
              <g id="Group_15822" data-name="Group 15822" clip-path="url(#clip-path-3)">
                <g id="Group_15821" data-name="Group 15821" opacity="0.1" style="mix-blend-mode: normal;isolation: isolate">
                  <g id="Group_15820" data-name="Group 15820">
                    <g id="Group_15819" data-name="Group 15819" clip-path="url(#clip-path-3)">
                      <path id="Path_24641" data-name="Path 24641" d="M98.788,138.018c-32.36,0-58.593-3.183-58.593-7.108S66.428,123.8,98.788,123.8s58.593,3.183,58.593,7.109-26.233,7.108-58.593,7.108"/>
                    </g>
                  </g>
                </g>
              </g>
            </g>
          </g>
          <path id="Path_24642" data-name="Path 24642" d="M36.3,51.069A43.637,43.637,0,0,1,44.58,36.3C52.9,26.5,66.4,22.385,71.624,21.1l.091-.02c1.306-.316,2.079-.454,2.079-.454v.008c5.108-1.032,18.291-3.256,30.513-1.666A47.9,47.9,0,0,1,118.428,5.185a35.212,35.212,0,0,1,8.311-4.4l.123-.055v.01c.363-.132.723-.269,1.092-.391,3.688-1.206,6.415.808,6.432,4.676.024,5.612.058,11.225-.03,16.836a2.515,2.515,0,0,0,1.612,2.609,47.051,47.051,0,0,1,19.62,19.85A48.184,48.184,0,0,1,160.6,60.053c2.869,0,5.663-.01,8.456,0,3.456.012,5.372,1.712,5.2,5.143-.423,8.52-1.491,16.48-2.03,24.744-.224,3.463-1.706,5.175-5.149,5.191-4.41.02-6.79-.021-11.2.054a2.426,2.426,0,0,0-1.765.9c-5.307,8.663-12.372,15.26-21.751,19.159a2.092,2.092,0,0,0-1.087,1.363l-1.28,7.053-13.018.418-8.049,2.578c-1.554-2.576-3.678-5.47-4.232-6.436a1.676,1.676,0,0,0-1-.856,3.213,3.213,0,0,0-1.11-.058l-14.309-.2c-1.936.026-3.873,0-5.923,0-.181,1.194-.79,6.624-1.157,9.675l-23.058-4.932s-4.829-6.374-3.142-11.226a2.96,2.96,0,0,0-1.452-2.8A47.225,47.225,0,0,1,36.6,87.249C34,80.1,33.728,72.7,33.92,65.238a51.783,51.783,0,0,1,1-9.011Z" fill="#f9bdaf"/>
          <path id="Path_24643" data-name="Path 24643" d="M159.976,56.441a13.566,13.566,0,0,0-5.333,9.363c-.448,4.957.24,5.182.24,5.182s1.434-9.661,5.729-10.93Z" fill="#f7a697"/>
          <path id="Path_24644" data-name="Path 24644" d="M36.643,87.214A47.245,47.245,0,0,0,53.581,109.8a2.951,2.951,0,0,1,1.451,2.8c-1.513,5.981,3.115,11.257,3.115,11.257l23.092,4.9c.367-3.051.977-8.481,1.157-9.673h.093a27.045,27.045,0,0,0,11.865,2.371,29.825,29.825,0,0,0,10.1-1.608.728.728,0,0,1,.13.167c.6,1.064,2.9,4.219,4.352,6.647l8.025-2.578,13.041-.418,1.28-7.054a2.061,2.061,0,0,1,1.087-1.363c9.384-3.9,16.474-10.527,21.781-19.192a2.432,2.432,0,0,1,1.764-.9c4.409-.076,6.788-.035,11.2-.055,3.443-.016,4.922-1.727,5.149-5.191l.213-3.566v-.1c-8.034,3.918-9.083,3.808-9.083,3.808-1.692.92-9.567.555-9.567.555-12.67,12.54-41.825,18.51-59.613,18.235S58.15,104.324,36.643,87.214" fill="#f7a697"/>
          <path id="Path_24645" data-name="Path 24645" d="M104.45,119.877a44.717,44.717,0,0,0,16.652,1.968c4.423-.355,8.058-1.456,9.776-2.954q.277.6.562,1.2c2.143,4.565,4.36,9.286,3.7,11.1a1.04,1.04,0,0,1-.561.629c-.227.018-.779-.612-1.267-1.171-.8-.914-1.711-1.95-2.4-1.895a.631.631,0,0,0-.076.011c-.488.1-.678,1-.9,2.043-.214,1.014-.455,2.163-.979,2.222-.449.051-.91.094-1.368.132-3.064.245-13.35.661-17.093-4.29a107.071,107.071,0,0,1-6.052-8.994" fill="#2b2f33"/>
          <path id="Path_24646" data-name="Path 24646" d="M55.936,120.081a44.712,44.712,0,0,0,16.651,1.968c4.423-.355,8.058-1.456,9.776-2.954q.279.6.562,1.2c2.144,4.565,4.36,9.286,3.7,11.1a1.032,1.032,0,0,1-.561.628c-.226.019-.778-.612-1.266-1.17-.8-.914-1.711-1.95-2.4-1.9a.7.7,0,0,0-.076.011c-.487.1-.678,1-.9,2.043-.213,1.014-.455,2.162-.978,2.222-.45.051-.91.094-1.369.132-3.064.245-13.35.661-17.092-4.29a57.487,57.487,0,0,1-6.053-9" fill="#2b2f33"/>
          <path id="Path_24647" data-name="Path 24647" d="M171.963,55.029a7.268,7.268,0,0,0-3.661,1.2c-3.649,3.11-5.1,9.667-4.7,20.761s1.577,15.253,5.048,18.126a12.064,12.064,0,0,0,2.224.056c.5-.117,1.085-40.142,1.085-40.142" fill="#e26f66"/>
          <path id="Path_24648" data-name="Path 24648" d="M172.6,55.073c2.173.5,4.075,9.254,3.934,22.182s-3.69,17.963-5.445,17.92-3.658-4.792-4.2-18.577,2.827-22.184,5.709-21.525" fill="#f7a697"/>
          <path id="Path_24649" data-name="Path 24649" d="M173.035,71.659c2.056,3.967.707,14.466-1.565,15.688s-2.911-8.852-2.13-11.833,2.061-7.007,3.7-3.855" fill="#ce5a55"/>
          <path id="Path_24650" data-name="Path 24650" d="M171.264,71.822c1.348,1.044.892,9.117-.568,10.366s-1.882-5.152-1.192-7.64,1.392-3.01,1.76-2.726" fill="#2b2f33"/>
          <path id="Path_24651" data-name="Path 24651" d="M116.918,28.878c-.02.043-.036.084-.056.129.007-.014.016-.028.023-.041s.02-.06.033-.088" fill="#e26f66"/>
          <path id="Path_24652" data-name="Path 24652" d="M115.555,35.555a4.32,4.32,0,0,1-1.727-.446,3.71,3.71,0,0,0,1.727.446" fill="#e26f66"/>
          <path id="Path_24653" data-name="Path 24653" d="M129.2,3.144c-5.949,2.879-8.142,6.907-8.959,11.212,2.257,1.371,6.353,4.689,5.707,10.439a12.071,12.071,0,0,1-7.128,9.329,28.691,28.691,0,0,0,5.712-1.828,16.48,16.48,0,0,0,5.368-7.783c2.961-8.468-.7-21.369-.7-21.369" fill="#e26f66"/>
          <path id="Path_24654" data-name="Path 24654" d="M116.056,33.247c.116.982,1.307,1.106,2.759.874a12.074,12.074,0,0,0,7.128-9.33c.649-5.751-3.452-9.069-5.707-10.439a57.621,57.621,0,0,0-.51,9.724c-.131,7.389-3.983,6.515-3.67,9.171" fill="#c6554f"/>
          <path id="Path_24655" data-name="Path 24655" d="M116.056,33.247c-.313-2.657,3.535-1.782,3.669-9.171a57.7,57.7,0,0,1,.51-9.724c.816-4.305,3.009-8.333,8.959-11.212,0,0-7.375,2.3-10.425,9.619-3.041,7.292-.655,13.477-1.853,16.119-.012.027-.02.06-.033.083s-.016.027-.023.041a10.85,10.85,0,0,1-4.462,4.076,2.61,2.61,0,0,0,1.429,2.026,4.314,4.314,0,0,0,1.728.447,7.1,7.1,0,0,0,.875.012,15.212,15.212,0,0,0,8.108-3.277h-.009a28.821,28.821,0,0,1-5.712,1.828c-1.454.24-2.645.115-2.761-.867" fill="#f7a697"/>
          <path id="Path_24656" data-name="Path 24656" d="M64.188,31.616a1.511,1.511,0,0,1,.668-2.029q.042-.021.084-.039a73.787,73.787,0,0,1,35.339-4.94,1.512,1.512,0,0,1,1.327,1.676c-.007.055-.016.109-.028.163l-.482,2.127a1.518,1.518,0,0,1-1.647,1.17A73.059,73.059,0,0,0,67.06,34.292a1.505,1.505,0,0,1-1.9-.736Z" fill="#2b2f33"/>
          <path id="Path_24657" data-name="Path 24657" d="M150.382,87.056C153.2,78.9,146.73,73.942,139.72,72.333s-14,2.082-13.328,11.44,20.6,13.08,23.99,3.283" fill="#f7a697"/>
          <path id="Path_24658" data-name="Path 24658" d="M136.373,62.844c.514-4.142,2.746-7.246,5.462-7.257,3.14-.012,5.737,4.119,5.8,9.226s-2.433,9.259-5.571,9.27c-2.717.01-5.025-3.08-5.641-7.219l8.561-2.041Z" fill="#2b2f33"/>
          <path id="Path_24659" data-name="Path 24659" d="M144.525,58.359c1.224,1.475.469,3.557-1.076,3.518-2.148-.056-2.913-2.836-1.733-3.862a1.868,1.868,0,0,1,2.639.128,1.966,1.966,0,0,1,.17.216" fill="#fff"/>
          <path id="Path_24660" data-name="Path 24660" d="M165.511,85.706l-.727,2.621a23.311,23.311,0,0,0-7.705-.753,25.35,25.35,0,0,0-10.723,3.551c.349.847,1.106,1.819,3.4,2.753,0,0-6.727.48-6.806-5.249a3.22,3.22,0,0,1,2.532.536,1.748,1.748,0,0,1,.592,1.061c2.885-2.785,9.05-6.775,19.437-4.52" fill="#e26f66"/>
          <path id="Path_24661" data-name="Path 24661" d="M32.906,63.136a26,26,0,0,1-9.117-1.914c-.208-.079-.4-.161-.634-.259a19.076,19.076,0,0,1-8.442,2.09c-.35,0-.7-.01-1.027-.033a14.255,14.255,0,0,1-4.534-1.03C3.533,59.686.247,52.968,0,47.817a2.337,2.337,0,0,1,1.083-2.128,2.638,2.638,0,0,1,1.41-.412,2.421,2.421,0,0,1,1.1.256A2.151,2.151,0,0,1,4.737,47.4a12.925,12.925,0,0,0,5.339,9.688,6.951,6.951,0,0,0,4.268,1.273,14.262,14.262,0,0,0,3.912-.614,16.2,16.2,0,0,1-3.831-5.494A13.346,13.346,0,0,1,13.4,45.87a12.25,12.25,0,0,1,4.18-8.337,8.935,8.935,0,0,1,5.639-1.959,9.607,9.607,0,0,1,1.087.062,10.315,10.315,0,0,1,9.211,10.732,15.216,15.216,0,0,1-1.542,6.086,17.278,17.278,0,0,1-3.984,5.2c.694.2,1.432.385,2.2.542a12.043,12.043,0,0,0,2.416.255,11.2,11.2,0,0,0,7.33-2.85l1.152-.96.335,5.894-.371.237-.1.064c-.2.127-.4.251-.6.365a14.632,14.632,0,0,1-7.444,1.935m-9.8-22.705A4.529,4.529,0,0,0,19.3,42.246a9.766,9.766,0,0,0-.981,8.059,9.868,9.868,0,0,0,4.822,5.8,12.889,12.889,0,0,0,4.942-5.37,8.478,8.478,0,0,0-.167-7.774,5.359,5.359,0,0,0-4.7-2.526Z" fill="#f9bdaf"/>
          <path id="Path_24662" data-name="Path 24662" d="M92.567,28.96c22.929,0,41.516,10.849,41.516,24.231S115.5,77.422,92.567,77.422,51.051,66.573,51.051,53.191,69.638,28.96,92.567,28.96" fill="#f9bdaf"/>
          <path id="Path_24663" data-name="Path 24663" d="M92.958,53.009a22.4,22.4,0,1,1-22.4,22.4,22.4,22.4,0,0,1,22.4-22.4" fill="#e26f66"/>
          <path id="Path_24664" data-name="Path 24664" d="M90.723,51.367A22.443,22.443,0,1,1,68.986,74.494,22.443,22.443,0,0,1,90.723,51.367" fill="#fddc04"/>
          <path id="Path_24665" data-name="Path 24665" d="M90.856,55.6A18.19,18.19,0,1,1,73.219,74.329,18.19,18.19,0,0,1,90.856,55.6" fill="#d89000"/>
          <path id="Path_24666" data-name="Path 24666" d="M74.132,74.094a17.48,17.48,0,1,1,17.017,17.93,17.479,17.479,0,0,1-17.017-17.93" fill="#f5af00"/>
          <path id="Path_24667" data-name="Path 24667" d="M107.11,57.776s6.529,5.23,6.726,16.335S105.214,96.3,90.779,96.219,70.6,84.173,69.295,77.6a23.9,23.9,0,0,0,9.662,14.5c8.216,5.642,20.279,4.224,27.569-2.744a21.149,21.149,0,0,0,4.694-24.8,23.338,23.338,0,0,0-10.57-11.2,33.725,33.725,0,0,1,6.46,4.415" fill="#d89000"/>
          <path id="Path_24668" data-name="Path 24668" d="M85.219,90.975a19.1,19.1,0,0,0,12.89-.237,18.293,18.293,0,0,0,10.036-9.848,20.249,20.249,0,0,0,1.447-6.917s.68,3.544-1.725,9.063-7.82,8.923-14.473,9.463-10.379-2.643-10.379-2.643a22.787,22.787,0,0,1,2.2,1.119" fill="#ffe28f"/>
          <path id="Path_24669" data-name="Path 24669" d="M84.843,66.936v3.656h-3.2v-2.5a4.333,4.333,0,0,1,4.3-4.337c4.18-.024,13.218,0,13.218,0a2.946,2.946,0,0,1,2.375,4.689l-6.285,8.885H91.337c.946-1.371,6.161-8.671,7.357-10.4,0,0-11.907,0-13.851.008" fill="#d89000"/>
          <path id="Path_24670" data-name="Path 24670" d="M98.9,81.023V77.367h3.2v2.5a4.331,4.331,0,0,1-4.3,4.337c-4.179.024-13.218,0-13.218,0a2.945,2.945,0,0,1-2.375-4.688L88.5,70.633h3.907c-.945,1.372-6.161,8.67-7.356,10.4,0,0,11.907,0,13.85-.009" fill="#d89000"/>
          <path id="Path_24671" data-name="Path 24671" d="M84.345,66.551v3.656h-3.2v-2.5a4.331,4.331,0,0,1,4.3-4.337c4.18-.024,13.218,0,13.218,0a2.946,2.946,0,0,1,2.375,4.688l-6.285,8.884H90.839c.945-1.371,6.161-8.67,7.356-10.4,0,0-11.906,0-13.85.009" fill="#fddc04"/>
          <path id="Path_24672" data-name="Path 24672" d="M98.4,80.639V76.983h3.2v2.5a4.331,4.331,0,0,1-4.3,4.337c-4.18.025-13.218,0-13.218,0a2.946,2.946,0,0,1-2.375-4.688L88,70.248h3.907c-.945,1.371-6.161,8.67-7.356,10.4,0,0,11.906,0,13.85-.009" fill="#fddc04"/>
          <path id="Path_24673" data-name="Path 24673" d="M132.486,71.589a16.19,16.19,0,0,0,2.1,16.83c7.993,9.984-9.8,17.813-12.8,5.571-2.886-11.787,10.7-22.4,10.7-22.4" fill="#03c9ff"/>
          <path id="Path_24674" data-name="Path 24674" d="M126.807,79.9s-.406,7.956,3.063,12.568-2.4,6.509-4.293,4.419c-2.429-2.685-5.049-9.534,1.23-16.987" fill="#59e5fc"/>
          <path id="Path_24675" data-name="Path 24675" d="M124.974,91.848s2.941,1.328,3.062,3.135c.1,1.542.089,3.4-2.465,2.348s-3.164-6.583-.6-5.483" fill="#9bf0f9"/>
        </g>
      </g>
    </g>
  </g>
</svg>
