<svg xmlns="http://www.w3.org/2000/svg" width="33" height="33" viewBox="0 0 33 33"><defs><style>.a{fill:rgba(239,243,250,0);}.b{fill:#394855;}</style></defs><rect class="a" width="33" height="33"/><g transform="translate(-1757.438 -519.117)"><path class="b" d="M1769.411,545.921c1.211,1.216,3.714,3.694,3.825,3.787a.917.917,0,0,0,.637.274h0a.824.824,0,0,0,.624-.258l.042-.04q1.89-1.874,3.766-3.761a.848.848,0,1,0-1.193-1.2c-.475.468-.944.939-1.414,1.411l-.325.327c-.086.086-.17.174-.272.28l-.4.414v-1.688q0-1.491,0-2.983a.861.861,0,0,0-.844-.963h0a.8.8,0,0,0-.577.226,1.016,1.016,0,0,0-.269.73q0,1.989,0,3.978v.634l-.327-.3c-.058-.052-.1-.094-.148-.138-.18-.179-.358-.359-.536-.537-.448-.453-.912-.919-1.382-1.363a1.272,1.272,0,0,0-.594-.3.661.661,0,0,0-.117-.011.81.81,0,0,0-.706.485A.841.841,0,0,0,1769.411,545.921Z"/><path class="b" d="M1770.809,535.4a1.35,1.35,0,0,1,.982-1.441l.125-.032v-1.778l-.181.017a2.7,2.7,0,0,0-2.386,2.443h-.5a.722.722,0,0,0-.009,1.444h.488a2.725,2.725,0,0,0,2.539,2.548c1.288.063,2.191-.76,2.675-2.444l.351-1.1c.194-.7.539-1.051,1.025-1.051.591,0,1.02.541,1.02,1.286a1.135,1.135,0,0,1-.9,1.268l-.138.022v1.75l.18-.014a2.572,2.572,0,0,0,2.357-2.255h.484a.722.722,0,0,0,.01-1.444h-.494a2.654,2.654,0,0,0-2.569-2.364c-1.223,0-2.057.755-2.55,2.313l-.3,1.095c-.245.847-.586,1.2-1.141,1.183C1771.229,536.834,1770.809,536.267,1770.809,535.4Z"/><path class="b" d="M1781.374,521.18h-15.04a2.962,2.962,0,0,0-2.959,2.959V535.2h-3.541v5.119h28.02V535.2h-3.522V524.139A2.962,2.962,0,0,0,1781.374,521.18Zm-18.007,17.485h-1.88V536.84h1.88Zm1.7-14.526a1.054,1.054,0,0,1,1.053-1.053h2.968l-.013.06a5.048,5.048,0,0,1-3.948,3.948l-.06.012Zm17.585,11.057h-.015v3.471h-17.57v-9.63l.043-.006a7,7,0,0,0,5.9-5.9l.006-.042h5.684l.007.042a7,7,0,0,0,5.9,5.9l.043.006Zm0-8.09-.059-.012a5.053,5.053,0,0,1-3.95-3.948l-.012-.06h2.969a1.053,1.053,0,0,1,1.052,1.053Zm3.552,9.735v1.817h-1.876v-1.817Z"/><circle class="b" cx="1.236" cy="1.236" r="1.236" transform="translate(1772.446 527.431)"/></g></svg>