<svg xmlns="http://www.w3.org/2000/svg" width="33" height="33" viewBox="0 0 33 33"><defs><style>.a{fill:rgba(239,243,250,0);}.b{fill:#eff3fa;}</style></defs><rect class="a" width="33" height="33"/><path class="b" d="M1408.926,634.913a3.121,3.121,0,0,0,2.133-.839,3.086,3.086,0,0,0,.969-2.158c0-.184.01-11.912,0-17.5h-.084v-.088h.084a3.1,3.1,0,0,0-3.039-3.1h-3.3l-.009-.033a9.107,9.107,0,0,0-17.551,0l-.009.033h-3.081c-.054,0-.107,0-.159,0a3.1,3.1,0,0,0-3.1,2.947v17.527a3.107,3.107,0,0,0,2.981,3.221h24.159Zm-3.118-19.337a9.12,9.12,0,0,0,.217-1.948c0-.177-.01-.354-.023-.522l0-.045h2.965a1.255,1.255,0,0,1,1.221,1.207c.014.354,0,.953,0,1.194v.18h-.043l-4.346-.012Zm-10.82-9.226a7.53,7.53,0,0,1,9.2,5.359,7.568,7.568,0,0,1,.248,1.925v.073a7.538,7.538,0,0,1-.265,1.892l-.009.031h-.034l-3.894-.015v-.042c-.025-1.245-.875-2.117-2.53-2.594l-1.163-.368c-.752-.206-1.133-.583-1.133-1.118,0-.646.586-1.115,1.394-1.115a1.247,1.247,0,0,1,1.374.986l.02.108h1.751l-.012-.144a2.672,2.672,0,0,0-2.331-2.436l-.038-.005v-.546a.717.717,0,0,0-.715-.71h-.005a.718.718,0,0,0-.71.71v.548l-.039,0a2.753,2.753,0,0,0-2.444,2.656c0,1.263.784,2.127,2.4,2.637l1.152.319c.778.224,1.17.56,1.235,1.055l.006.05h-.05l-8.759-.026-.007-.033A7.538,7.538,0,0,1,1394.988,606.351Zm-10.838,6.967a1.261,1.261,0,0,1,.568-.233h3.094l0,.047c-.013.16-.024.333-.024.506a9.136,9.136,0,0,0,.208,1.89l.012.053h-.054l-3.2-.011a1.251,1.251,0,0,1-.6-2.25Zm-.524,18.208,0-14.175h.043l24.978.08c1.094,0,1.541.451,1.541,1.557v2.06h-3.469a4.2,4.2,0,0,0-.094,8.391c.972.018,3.489,0,3.514,0h.042v.043c0,.018.025,1.927-.006,2.5a1.228,1.228,0,0,1-1.207,1.087h-23.812C1384.1,633.066,1383.626,632.591,1383.626,631.525Zm26.55-8.617v4.561l-.115.112-.08.015c-.384,0-.741.005-1.1.011h0c-.175,0-.353,0-.531,0s-.362,0-.544,0c-.479,0-.891-.008-1.262-.024a2.323,2.323,0,0,1-2.155-2.272,2.28,2.28,0,0,1,2.078-2.39c.414-.027.861-.041,1.407-.041.313,0,.637,0,.951.01h.2c.32,0,.649.01.976.01Z" transform="translate(-1380.408 -603.215)"/></svg>