<svg xmlns="http://www.w3.org/2000/svg" width="33.001" height="33" viewBox="0 0 33.001 33"><defs><style>.a{fill:rgba(239,243,250,0);}.b{fill:#394855;}</style></defs><rect class="a" width="33" height="33"/><g transform="translate(24890.68 24642.631)"><path class="b" d="M1406.76,538.153c.343,0,.634-.692.712-1.621l-1.08-.459,1.086-.444c-.065-.931-.347-1.628-.689-1.631-.4,0-.723.925-.731,2.073S1406.365,538.146,1406.76,538.153Z" transform="translate(-26271.121 -25161.498)"/><path class="b" d="M1392.609,536.668s0-.862.03-1.085a.567.567,0,0,1,.611-.521h0c.852,0,5.441-.008,5.441-.008-.523.758-2.8,3.961-3.218,4.563h1.712l2.75-3.9a1.292,1.292,0,0,0-1.043-2.054s-3.961-.005-5.794.007a1.9,1.9,0,0,0-1.881,1.9v1.1Z" transform="translate(-26270.051 -25161.566)"/><path class="b" d="M1392.429,542.635s3.961.005,5.794-.008a1.9,1.9,0,0,0,1.881-1.9v-1.1h-1.388s0,.862-.03,1.085a.569.569,0,0,1-.611.522h0c-.852,0-5.441.008-5.441.008.523-.759,2.8-3.961,3.218-4.563h-1.712l-2.75,3.9a1.29,1.29,0,0,0,1.043,2.054Z" transform="translate(-26270.041 -25161.914)"/><path class="b" d="M1395.076,527.245v.1a.581.581,0,1,0,1.162.006v-.106a2.218,2.218,0,0,0,1.544-1.545h-1.053a1.212,1.212,0,1,1,.008-1.162h1.053a2.2,2.2,0,0,0-1.548-1.547v-.17a.581.581,0,1,0-1.162-.005v.172a2.207,2.207,0,0,0,0,4.256Z" transform="translate(-26270.047 -25160.336)"/><path class="b" d="M1410.429,533.735a1.332,1.332,0,0,0-1-.363H1407.9a9.964,9.964,0,0,0-5.121-7.245c-.175-.091-.212-.153-.21-.329.017-1.075.012-2.148.006-3.224v-.222a1.151,1.151,0,0,0-1.611-1.169,7.568,7.568,0,0,0-2.754,1.618l-.25.228a4.363,4.363,0,0,0-8.361,1.751,4.073,4.073,0,0,0,.06.594,11.284,11.284,0,0,0-5.835,3.226,9.175,9.175,0,0,0-1.683,2.937h-1.845a1.081,1.081,0,0,1-.751-1.848,1.06,1.06,0,0,1,.751-.315h1.153v-.04a.753.753,0,0,0,0-1.423v-.043h-1.166a2.542,2.542,0,0,0-1.79.735,2.6,2.6,0,0,0-.025,3.678l.006.006a2.551,2.551,0,0,0,1.821.757h1.452a11.231,11.231,0,0,0-.159,1.609c-.005.225,0,.454,0,.687a.806.806,0,0,0-.082.34.791.791,0,0,0,.091.363,10.235,10.235,0,0,0,.554,3.195,9.944,9.944,0,0,0,3.54,4.719.381.381,0,0,1,.2.38c-.022.731-.006,3.2-.006,3.31v.225h5.787l.119-1c.043-.37.086-.74.115-.972h1.008l2.814.006c.016.006.03.016.028,0,.029.122.091.87.13,1.366l.051.6h6.132l-.3-1.271s-.007-1,0-1.425a.2.2,0,0,1,.067-.054,10.129,10.129,0,0,0,4.719-4.038.3.3,0,0,1,.172-.077c.584-.011.993-.014,1.452-.011h.829c.8,0,1.223-.42,1.278-1.271.049-.749.12-1.487.19-2.226.091-.915.177-1.861.226-2.832A1.215,1.215,0,0,0,1410.429,533.735Zm-19.924-4.582c.222,0,7.095.01,7.2-.009a.522.522,0,0,0-.026-1.038c-.022,0-.378,0-.908-.005a4.338,4.338,0,0,0,1.532-3.054,3.821,3.821,0,0,1,.357-.512,7.1,7.1,0,0,1,2.4-1.764v.85c0,.869.008,1.74-.008,2.609a1.051,1.051,0,0,0,.653,1.052,8.348,8.348,0,0,1,4.564,5.7,9.688,9.688,0,0,1,.182,1.081.806.806,0,0,0,.775.835.758.758,0,0,0,.156-.01h1.783c-.091,1.351-.2,2.928-.377,4.606h-.887c-.523,0-.958,0-1.6-.005h-.012a.9.9,0,0,0-.841.5,8.4,8.4,0,0,1-4.553,3.883.857.857,0,0,0-.626.9c.012.415.009.83.006,1.253v.323h-2.913l-.031-.207c-.05-.339-.1-.678-.16-1.015a.751.751,0,0,0-.764-.738.739.739,0,0,0-.089.006c-.261,0-.521-.008-.776,0l-2.85,0c-.443,0-.885-.009-1.327-.005a.75.75,0,0,0-.854.63.674.674,0,0,0-.009.1c-.057.332-.108.666-.158,1.006l-.036.236h-2.913v-.531c0-.607-.008-1.208.01-1.807a1.164,1.164,0,0,0-.564-1.089,8.351,8.351,0,0,1-3.748-6.967V535.8a.577.577,0,0,0,.022-.111.763.763,0,0,0-.025-.129,8.814,8.814,0,0,1,.775-4.168,8.337,8.337,0,0,1,6.276-4.538,4.358,4.358,0,0,0,1.012,1.246h-.662c-.406.005-.651.208-.645.532S1390.1,529.149,1390.505,529.153Zm3.457-7.638a3.267,3.267,0,1,1-3.267,3.267h0a3.275,3.275,0,0,1,3.267-3.267Z" transform="translate(-26268.395 -25160.043)"/></g></svg>