<svg id="icon_-_nav_-_hamburger_menu" data-name="icon - nav - hamburger menu" xmlns="http://www.w3.org/2000/svg" width="33" height="33" viewBox="0 0 33 33">
  <rect id="Rectangle_423-8" data-name="Rectangle 423-8" width="33" height="33" fill="rgba(239,243,250,0)"/>
  <g id="Group_12386" data-name="Group 12386" transform="translate(-595.66 770.098)">
    <path id="Path_21426" data-name="Path 21426" d="M658.651-663.682l-4.341-3.272H638.262a1.379,1.379,0,0,1-1.379-1.379,1.379,1.379,0,0,1,1.379-1.379h16.971l3.349,2.525,3.092-2.525H666.5a1.379,1.379,0,0,1,1.379,1.379,1.379,1.379,0,0,1-1.379,1.379h-3.846Z" transform="translate(-41 -83.249)" fill="#eff3fa"/>
    <path id="Path_21427" data-name="Path 21427" d="M668.478-644.995H641a1.759,1.759,0,0,1-1.759-1.759v-1.407h31v1.407A1.759,1.759,0,0,1,668.478-644.995Z" transform="translate(-42.393 -96.006)" fill="#eff3fa"/>
    <path id="Path_21428" data-name="Path 21428" d="M669.974-695.42a20.476,20.476,0,0,0-15.232-6.808,20.476,20.476,0,0,0-15.232,6.808l-.072.081a.782.782,0,0,0,.589,1.3h1.726a1.191,1.191,0,0,0,.825-.34,17.542,17.542,0,0,1,12.164-4.914,17.543,17.543,0,0,1,12.164,4.914,1.19,1.19,0,0,0,.825.34h1.726a.782.782,0,0,0,.589-1.3Z" transform="translate(-42.397 -64)" fill="#eff3fa"/>
  </g>
</svg>
