<svg xmlns="http://www.w3.org/2000/svg" xmlns:xlink="http://www.w3.org/1999/xlink" width="32.015" height="32.018" viewBox="0 0 32.015 32.018">
  <defs>
    <linearGradient id="linear-gradient" y1="0.5" x2="1" y2="0.5" gradientUnits="objectBoundingBox">
      <stop offset="0" stop-color="#f9a234"/>
      <stop offset="0.181" stop-color="#fbb73b"/>
      <stop offset="0.377" stop-color="#fec841"/>
      <stop offset="0.526" stop-color="#ffce44"/>
      <stop offset="0.661" stop-color="#fec741"/>
      <stop offset="0.852" stop-color="#fbb53a"/>
      <stop offset="1" stop-color="#f9a234"/>
    </linearGradient>
  </defs>
  <g id="logo_-_iOS_navigation_bar_top_" data-name="logo -  iOS navigation bar (top)" transform="translate(0)">
    <path id="Path_1220" data-name="Path 1220" d="M131.819,120.254v5.721h-5.01v-1.566l0-2.345a6.777,6.777,0,0,1,6.721-6.786c6.543-.037,20.68,0,20.68,0a4.609,4.609,0,0,1,3.715,7.336l-9.833,13.9h-6.113c1.48-2.146,9.639-13.567,11.509-16.272C153.493,120.241,134.861,120.247,131.819,120.254Z" transform="translate(-126.809 -115.262)" fill="url(#linear-gradient)"/>
    <path id="Path_1227" data-name="Path 1227" d="M5.01,4.991v5.721H0V9.147L0,6.8A6.777,6.777,0,0,1,6.726.017c6.543-.037,20.68,0,20.68,0a4.609,4.609,0,0,1,3.715,7.336l-9.833,13.9H15.174C16.655,19.1,24.813,7.684,26.684,4.979,26.684,4.979,8.052,4.985,5.01,4.991Z" transform="translate(32.014 32.018) rotate(180)" fill="url(#linear-gradient)"/>
  </g>
</svg>
