<svg id="illustration_-_welcome" data-name="illustration - welcome" xmlns="http://www.w3.org/2000/svg" xmlns:xlink="http://www.w3.org/1999/xlink" width="276.498" height="190.217" viewBox="0 0 276.498 190.217">
  <defs>
    <linearGradient id="linear-gradient" x1="-18.64" y1="126.255" x2="-17.74" y2="126.255" gradientUnits="objectBoundingBox">
      <stop offset="0" stop-color="#f9a238"/>
      <stop offset="0.181" stop-color="#fbb73d"/>
      <stop offset="0.377" stop-color="#fec842"/>
      <stop offset="0.526" stop-color="#ffce44"/>
      <stop offset="0.661" stop-color="#fec742"/>
      <stop offset="0.852" stop-color="#fbb53d"/>
      <stop offset="1" stop-color="#f9a238"/>
    </linearGradient>
    <linearGradient id="linear-gradient-2" x1="-18.377" y1="126.412" x2="-17.477" y2="126.412" xlink:href="#linear-gradient"/>
  </defs>
  <g id="Group_11660" data-name="Group 11660" transform="translate(134.592 66.635)">
    <g id="Group_11659" data-name="Group 11659">
      <g id="Group_11658" data-name="Group 11658">
        <line id="Line_100" data-name="Line 100" x2="4.321" y2="6.716" fill="none"/>
      </g>
    </g>
  </g>
  <circle id="Ellipse_804" data-name="Ellipse 804" cx="95.109" cy="95.109" r="95.109" transform="translate(41.644)" fill="#36b0b7"/>
  <g id="Group_11288" data-name="Group 11288" transform="translate(46.563 125.372)" opacity="0.05">
    <path id="Path_13256" data-name="Path 13256" d="M3138.057,2104.2a95.147,95.147,0,0,0,90.189-64.846h-180.38A95.147,95.147,0,0,0,3138.057,2104.2Z" transform="translate(-3047.866 -2039.353)" fill="#1a1717"/>
  </g>
  <g id="Group_11294" data-name="Group 11294" transform="translate(47.684 21.383)" opacity="0.25">
    <circle id="Ellipse_805" data-name="Ellipse 805" cx="1.313" cy="1.313" r="1.313" transform="translate(35.729)" fill="#fff"/>
    <circle id="Ellipse_806" data-name="Ellipse 806" cx="1.313" cy="1.313" r="1.313" transform="translate(35.729 8.932)" fill="#fff"/>
    <circle id="Ellipse_807" data-name="Ellipse 807" cx="1.313" cy="1.313" r="1.313" transform="translate(35.729 17.864)" fill="#fff"/>
    <circle id="Ellipse_808" data-name="Ellipse 808" cx="1.313" cy="1.313" r="1.313" transform="translate(35.729 26.797)" fill="#fff"/>
    <circle id="Ellipse_809" data-name="Ellipse 809" cx="1.313" cy="1.313" r="1.313" transform="translate(35.729 35.728)" fill="#fff"/>
    <circle id="Ellipse_810" data-name="Ellipse 810" cx="1.313" cy="1.313" r="1.313" transform="translate(35.729 44.661)" fill="#060707" opacity="0.03" style="mix-blend-mode: normal;isolation: isolate"/>
    <circle id="Ellipse_811" data-name="Ellipse 811" cx="1.313" cy="1.313" r="1.313" transform="translate(35.729 53.593)" fill="#fff"/>
    <circle id="Ellipse_812" data-name="Ellipse 812" cx="1.313" cy="1.313" r="1.313" transform="translate(35.729 62.525)" fill="#fff"/>
    <circle id="Ellipse_813" data-name="Ellipse 813" cx="1.313" cy="1.313" r="1.313" transform="translate(35.729 71.457)" fill="#fff"/>
    <circle id="Ellipse_814" data-name="Ellipse 814" cx="1.313" cy="1.313" r="1.313" transform="translate(35.729 80.39)" fill="#fff"/>
    <circle id="Ellipse_815" data-name="Ellipse 815" cx="1.313" cy="1.313" r="1.313" transform="translate(35.729 89.322)" fill="#fff"/>
    <path id="Path_13266" data-name="Path 13266" d="M3086.508,1902.878a1.313,1.313,0,1,1-1.863,1.569Z" transform="translate(-3057.782 -1902.729)" fill="#fff"/>
    <circle id="Ellipse_816" data-name="Ellipse 816" cx="1.313" cy="1.313" r="1.313" transform="translate(26.797 8.932)" fill="#fff"/>
    <circle id="Ellipse_817" data-name="Ellipse 817" cx="1.313" cy="1.313" r="1.313" transform="translate(26.797 17.864)" fill="#fff"/>
    <circle id="Ellipse_818" data-name="Ellipse 818" cx="1.313" cy="1.313" r="1.313" transform="translate(26.797 26.797)" fill="#fff"/>
    <circle id="Ellipse_819" data-name="Ellipse 819" cx="1.313" cy="1.313" r="1.313" transform="translate(26.797 35.728)" fill="#fff"/>
    <circle id="Ellipse_820" data-name="Ellipse 820" cx="1.313" cy="1.313" r="1.313" transform="translate(26.797 44.661)" fill="#fff"/>
    <circle id="Ellipse_821" data-name="Ellipse 821" cx="1.313" cy="1.313" r="1.313" transform="translate(26.797 53.593)" fill="#fff"/>
    <circle id="Ellipse_823" data-name="Ellipse 823" cx="1.313" cy="1.313" r="1.313" transform="translate(26.797 71.457)" fill="#fff"/>
    <circle id="Ellipse_824" data-name="Ellipse 824" cx="1.313" cy="1.313" r="1.313" transform="translate(26.797 80.39)" fill="#fff"/>
    <circle id="Ellipse_825" data-name="Ellipse 825" cx="1.313" cy="1.313" r="1.313" transform="translate(26.797 89.322)" fill="#fff"/>
    <path id="Path_13267" data-name="Path 13267" d="M3074.33,1914.439a1.313,1.313,0,1,1-1.463,1.609C3072.863,1916.032,3074.33,1914.439,3074.33,1914.439Z" transform="translate(-3054.966 -1905.494)" fill="#fff"/>
    <circle id="Ellipse_826" data-name="Ellipse 826" cx="1.313" cy="1.313" r="1.313" transform="translate(17.865 17.864)" fill="#fff"/>
    <circle id="Ellipse_827" data-name="Ellipse 827" cx="1.313" cy="1.313" r="1.313" transform="translate(17.865 26.797)" fill="#fff"/>
    <circle id="Ellipse_828" data-name="Ellipse 828" cx="1.313" cy="1.313" r="1.313" transform="translate(17.865 35.728)" fill="#fff"/>
    <circle id="Ellipse_829" data-name="Ellipse 829" cx="1.313" cy="1.313" r="1.313" transform="translate(17.865 44.661)" fill="#fff"/>
    <circle id="Ellipse_830" data-name="Ellipse 830" cx="1.313" cy="1.313" r="1.313" transform="translate(17.865 53.593)" fill="#fff"/>
    <circle id="Ellipse_831" data-name="Ellipse 831" cx="1.313" cy="1.313" r="1.313" transform="translate(17.865 62.525)" fill="#fff"/>
    <circle id="Ellipse_832" data-name="Ellipse 832" cx="1.313" cy="1.313" r="1.313" transform="translate(17.865 71.457)" fill="#fff"/>
    <circle id="Ellipse_833" data-name="Ellipse 833" cx="1.313" cy="1.313" r="1.313" transform="translate(17.865 80.39)" fill="#fff"/>
    <circle id="Ellipse_834" data-name="Ellipse 834" cx="1.313" cy="1.313" r="1.313" transform="translate(17.865 89.322)" fill="#fff"/>
    <circle id="Ellipse_835" data-name="Ellipse 835" cx="1.313" cy="1.313" r="1.313" transform="translate(8.932 26.797)" fill="#fff"/>
    <circle id="Ellipse_836" data-name="Ellipse 836" cx="1.313" cy="1.313" r="1.313" transform="translate(8.932 35.728)" fill="#fff"/>
    <circle id="Ellipse_837" data-name="Ellipse 837" cx="1.313" cy="1.313" r="1.313" transform="translate(8.932 44.661)" fill="#fff"/>
    <circle id="Ellipse_838" data-name="Ellipse 838" cx="1.313" cy="1.313" r="1.313" transform="translate(8.932 53.593)" fill="#fff"/>
    <circle id="Ellipse_839" data-name="Ellipse 839" cx="1.313" cy="1.313" r="1.313" transform="translate(8.932 62.525)" fill="#fff"/>
    <circle id="Ellipse_840" data-name="Ellipse 840" cx="1.313" cy="1.313" r="1.313" transform="translate(8.932 71.457)" fill="#fff"/>
    <circle id="Ellipse_841" data-name="Ellipse 841" cx="1.313" cy="1.313" r="1.313" transform="translate(8.932 80.39)" fill="#fff"/>
    <circle id="Ellipse_842" data-name="Ellipse 842" cx="1.313" cy="1.313" r="1.313" transform="translate(8.932 89.322)" fill="#fff"/>
    <path id="Path_13268" data-name="Path 13268" d="M3051.325,1949.739a1.313,1.313,0,0,1-.883,2.474,1.344,1.344,0,0,1-.131-.055Z" transform="translate(-3049.572 -1913.935)" fill="#fff"/>
    <circle id="Ellipse_843" data-name="Ellipse 843" cx="1.313" cy="1.313" r="1.313" transform="translate(0 44.661)" fill="#fff"/>
    <circle id="Ellipse_844" data-name="Ellipse 844" cx="1.313" cy="1.313" r="1.313" transform="translate(0 53.593)" fill="#fff"/>
    <circle id="Ellipse_845" data-name="Ellipse 845" cx="1.313" cy="1.313" r="1.313" transform="translate(0 62.525)" fill="#fff"/>
    <circle id="Ellipse_846" data-name="Ellipse 846" cx="1.313" cy="1.313" r="1.313" transform="translate(0 71.457)" fill="#fff"/>
    <circle id="Ellipse_847" data-name="Ellipse 847" cx="1.313" cy="1.313" r="1.313" transform="translate(0 80.39)" fill="#fff"/>
    <circle id="Ellipse_848" data-name="Ellipse 848" cx="1.313" cy="1.313" r="1.313" transform="translate(0 89.322)" fill="#fff"/>
  </g>
  <g id="Group_11661" data-name="Group 11661" transform="translate(0 55.771)">
    <path id="Path_17261" data-name="Path 17261" d="M3076.741,2018.487s-25.478-3.635-38.324-10.26c-8.917-4.6-20.393-18.058-26.928-25.657-2.039.892-3.482,1.3-4.8,3.17,4.173,7.37,17.99,32.785,28.868,37.164,14.2,5.716,39.777,12.861,39.777,12.861Z" transform="translate(-2991.458 -1956.174)" fill="#f7a185"/>
    <path id="Path_17262" data-name="Path 17262" d="M3115.446,2000.535l1.293-.143a5.126,5.126,0,0,1,5.644,4.515l2.591,14.537c.311,2.794-2.692,5.394-5.485,5.7l-1.294.144c-2.794.31-6.349-2.556-6.659-5.35l-.606-13.764A5.127,5.127,0,0,1,3115.446,2000.535Z" transform="translate(-3016.377 -1960.428)" fill="#e79c83"/>
    <path id="Path_17263" data-name="Path 17263" d="M3094.469,2022.219c-.639-.09-34.155-2.688-34.155-2.688l-1.169,19.1,31.406,10.522Z" transform="translate(-3004.001 -1965.012)" fill="#732f62"/>
    <path id="Path_17264" data-name="Path 17264" d="M3136.768,2020.813a26.969,26.969,0,0,1,19.663,7.486c4.092,4,13.452,26.831,13.452,26.831l-18.422,4.307Z" transform="translate(-3022.563 -1965.311)" fill="#732f62"/>
    <path id="Path_17265" data-name="Path 17265" d="M3009.842,1978.317s2.718-1.851,2.629-4.667-.339-6.717.5-9,2.241-4.333,1.9-4.944-2.045-.475-2.7-.083a5.86,5.86,0,0,0-2.173,3.5c-.282,1.087-.358,3.754-.843,3.708s-2.664-4.31-2.889-7.094.144-3.374-.237-4.524a22.154,22.154,0,0,1-.683-5.458,1.442,1.442,0,0,0-1.495-1.613c-.639.161-1.353,1.564-1.477,3.335s.418,9.231.226,9.836-.386.711-.693.191a67.477,67.477,0,0,1-2.058-6.925c-.208-1.09-1.564-4.16-1.785-5.118s-.811-1.787-1.414-1.535-1.39,1.1-1.14,3.62,1.041,3.965,1.474,5.968,1.112,4.846.906,5.138-.738-.354-.984-.578a51.628,51.628,0,0,1-2.894-5.646c-.879-2-1.585-4.876-1.916-5.13s-1.849.224-1.81,2.145,1.863,5.7,2.517,6.792a18.2,18.2,0,0,1,1.814,4.808c-.019.667-.416.628-.833.321s-2.71-3.823-3.318-4.461-2.275-3.247-2.647-3.55-1.639,1.76-.951,3.43,3.8,5.487,4.642,6.459a39.494,39.494,0,0,1,3.413,4.872c.486.982,2.2,5.424,3.354,6.426a8.667,8.667,0,0,0,5.464,1.764A61.3,61.3,0,0,0,3009.842,1978.317Z" transform="translate(-2986.67 -1947.878)" fill="#f7a186"/>
  </g>
  <g id="Group_11664" data-name="Group 11664" transform="translate(130.898 45.35)">
    <g id="Group_11663" data-name="Group 11663">
      <path id="Path_17266" data-name="Path 17266" d="M3206.141,2026.555c-9.591,3.088-13.744-.926-18.572,3.979-7.972,8.1-29.8,24.881-28.456,38.849,1.992,20.768,32.568,6.991,32.568,6.991Z" transform="translate(-3158.79 -1956.271)" fill="#736371"/>
      <path id="Path_17267" data-name="Path 17267" d="M3250.558,1972.448a6.741,6.741,0,0,0,2.294-4.868c.194-3.245-1.585-6-4-6.272a5.444,5.444,0,0,0,.219-1.217,5.014,5.014,0,0,0-4.567-5.416,4.648,4.648,0,0,0-1.577.18,2.029,2.029,0,0,0-1.852-1.406c-.044,0-.086,0-.13,0a3.066,3.066,0,0,0,.259-1.057,2.756,2.756,0,0,0-2.463-3.013,2.439,2.439,0,0,0-1,.153,4.419,4.419,0,0,0-3.622-2.4,4.3,4.3,0,0,0-2.922.928,4.146,4.146,0,0,0-3.715-3.754,3.751,3.751,0,0,0-2.5.8c.061-2.706-1.651-4.971-3.914-5.106-2.282-.136-4.268,1.944-4.5,4.673a2.756,2.756,0,0,0-1.109-.31,2.845,2.845,0,0,0-2.157.826,3.571,3.571,0,0,0-2.8-1.895c-2.145-.129-4.021,2.044-4.189,4.853-.005.086,0,.171-.005.256a5.428,5.428,0,0,0-2.54-.8,5.053,5.053,0,0,0-5.02,2.918,2.85,2.85,0,0,0-.633-.115c-1.891-.114-3.535,1.652-3.672,3.942a4.974,4.974,0,0,0,.031.9c-.094-.014-.184-.042-.28-.048a3.827,3.827,0,0,0-3.861,3.774,4.27,4.27,0,0,0,.493,2.28,6.6,6.6,0,0,0-4.013,5.754,6.812,6.812,0,0,0,.611,3.262,4.1,4.1,0,0,0-2.861,3.435,4.325,4.325,0,0,0,3.179,4.08,6.975,6.975,0,0,0-1.835,4.4c-.206,3.457,1.926,6.4,4.762,6.566a4.27,4.27,0,0,0,1.035-.064,6.373,6.373,0,0,0-1.237,3.428,5.8,5.8,0,0,0,5.172,6.355,5.147,5.147,0,0,0,2.546-.509,3.789,3.789,0,0,0,3.068,3.333,4.209,4.209,0,0,0,3.61,3.224c3.662.444,4.048-.76,3.967-2.6.108.015.212.218.324.218h.051c.4.761,2.129,2.939,4.284,3.069a4.773,4.773,0,0,0,4.3-2.109,3.593,3.593,0,0,0,3.068,2.419c1.9.114,3.552-1.547,3.884-3.75a2.558,2.558,0,0,0,1.094-.947,3.564,3.564,0,0,0,2.715,1.625c2.1.125,3.915-1.755,4.06-4.2,0-.04,0-.079,0-.12a2.41,2.41,0,0,0,.772.187,2.571,2.571,0,0,0,2.448-1.486,3.4,3.4,0,0,0,2.572,1.526c2,.12,3.734-1.675,3.874-4.008a4.715,4.715,0,0,0-.489-2.417c1.058-.447,1.907-1.971,2.019-3.851a6.423,6.423,0,0,0-.153-1.834,4.064,4.064,0,0,0,.3-.9,3.219,3.219,0,0,0,1.344.394c2.254.135,4.226-2.151,4.4-5.105a6.894,6.894,0,0,0-.1-1.656,5.838,5.838,0,0,0,1.473-3.63A6.159,6.159,0,0,0,3250.558,1972.448Z" transform="translate(-3164.885 -1935.573)" fill="#301814"/>
      <path id="Path_17268" data-name="Path 17268" d="M3196.79,1989.862c.786,2.952,3.113,4.9,5.2,4.342s3.143-3.4,2.358-6.35-3.112-4.9-5.2-4.341S3196.005,1986.91,3196.79,1989.862Z" transform="translate(-3167.751 -1945.956)" fill="#d58a74"/>
      <path id="Path_17269" data-name="Path 17269" d="M3225.926,1945.994c-7.358-.44-25.272,2.22-25.433,28.907-.169,28.1,24.275,24.61,24.275,24.61s17.127-.814,20.352-24.629S3234.209,1946.489,3225.926,1945.994Z" transform="translate(-3168.698 -1936.996)" fill="#301814"/>
      <path id="Path_17270" data-name="Path 17270" d="M3223.638,2028h0a4.543,4.543,0,0,1-3.711-5.188l1.191-10.975a4.528,4.528,0,0,1,4.738-4.259h0a4.544,4.544,0,0,1,3.712,5.188l-1.191,10.975A4.528,4.528,0,0,1,3223.638,2028Z" transform="translate(-3173.339 -1951.729)" fill="#e4a084"/>
      <path id="Path_17271" data-name="Path 17271" d="M3229.332,2017.247l.486-4.477a4.277,4.277,0,1,0-8.45-.929l-.428,4.717C3222.232,2017.519,3226.936,2018.557,3229.332,2017.247Z" transform="translate(-3173.589 -1951.729)" fill="#d58a74"/>
      <path id="Path_17272" data-name="Path 17272" d="M3219.679,2001.649a18.067,18.067,0,0,1-8.241-2.219c-11.774-6.325-13.6-23.638-7.9-34.594l.089-.17a24.137,24.137,0,0,1,2.281-3.534,22.427,22.427,0,0,1,11.732-8.163,20.3,20.3,0,0,1,6.627-.647c13.261.849,19.721,15.469,18.379,27.257C3241.346,1991.016,3231.056,2001.884,3219.679,2001.649Z" transform="translate(-3168.682 -1938.509)" fill="#e4a084"/>
      <path id="Path_17273" data-name="Path 17273" d="M3256.7,1993.48c-1.131,2.838-3.675,4.49-5.68,3.691s-2.716-3.748-1.585-6.586,3.674-4.491,5.68-3.691S3257.836,1990.642,3256.7,1993.48Z" transform="translate(-3180.275 -1946.739)" fill="#e4a084"/>
      <path id="Path_17274" data-name="Path 17274" d="M3241.357,1997.22c-3.825,7.6-11.962,17.891-29.858,10.67a18.524,18.524,0,0,0,2.588,1.694,18.071,18.071,0,0,0,8.241,2.219c8.135.168,15.714-5.342,19.848-12.677,1.991.712,4.472-.927,5.585-3.721.088-.221.162-.441.227-.663C3247.624,1995.117,3244.858,2001.253,3241.357,1997.22Z" transform="translate(-3171.331 -1948.664)" fill="#d58a74"/>
      <path id="Path_17275" data-name="Path 17275" d="M3225.926,1945.994c-7.358-.44-25.272,2.22-25.433,28.907a11.494,11.494,0,0,1,.457-2.4,33.6,33.6,0,0,1,1.852-5.656c4.19-9.719,15.22-14.227,25.989-10.045,8.719,3.387,9.413,12.587,10.656,20.43.492,3.107,3.52-.625,3.52-.625C3246.193,1952.791,3234.209,1946.489,3225.926,1945.994Z" transform="translate(-3168.698 -1936.996)" fill="#301814"/>
      <path id="Path_17276" data-name="Path 17276" d="M3200.43,1974.635s-5.628-27.924,22.486-26.243c28.333,1.693,19.926,28.78,19.926,28.78s1.534-22.682-20.467-23.616C3199.872,1952.6,3200.43,1974.635,3200.43,1974.635Z" transform="translate(-3168.574 -1937.563)" fill="#f6c231"/>
      <g id="Group_11662" data-name="Group 11662" transform="translate(69.271 8.952)">
        <path id="Path_17277" data-name="Path 17277" d="M3305.323,1945.948c-.146.258-13.43,23.307-24.2,38.74-7.187,10.3-22.433,16.97-31.373,20.21.73,2.845,1.476,5.688,2.266,8.517,7.768-3.068,26.9-10.989,35.992-24.011,11.022-15.79,19.066-35.02,19.674-36.087Z" transform="translate(-3249.748 -1945.948)" fill="#e4a084"/>
      </g>
      <path id="Path_17278" data-name="Path 17278" d="M3230.288,1995.309a1.306,1.306,0,0,1,1.137,1.858c-1.853,3.923-5.395,6.539-9.344,6.4s-7.3-3-8.869-7.042a1.307,1.307,0,0,1,1.265-1.774Z" transform="translate(-3171.719 -1948.666)" fill="#fff"/>
      <path id="Path_17279" data-name="Path 17279" d="M3159.4,2070.944s-1.457-11.278,15.317-21.443c15.239-9.234,25.141-16.168,30.542-23.508a98.208,98.208,0,0,1-13.184-2.576s-23.186,22.139-29.22,31.715C3156.4,2065.384,3159.4,2070.944,3159.4,2070.944Z" transform="translate(-3158.706 -1955.521)" fill="#a48fa0"/>
      <path id="Path_17280" data-name="Path 17280" d="M3337.152,1938.51q-2.078,1.049-4.183,2.041c-.957.448-1.917.935-2.911,1.291a1.636,1.636,0,0,1-.644.13.461.461,0,0,1-.452-.329c-.085-.514.879-.913,1.258-1.154a45.815,45.815,0,0,1,5.453-3.249c1.373-.641,1.88-1.151,1.67-1.58-.49-1-2.354-.462-3.639.071a20.326,20.326,0,0,0-4.394,2.868c-1.131.863-2.973,2.521-4.5,2.485-1.21-.029-.313-1.561.083-2a7.327,7.327,0,0,0,1.787-3.324c.186-1.186-1.123-2.464-1.848-.725a3.568,3.568,0,0,1-1.589,1.856c-2.506,1.882-4.326,5.978-5.281,7.628-.911,1.573-2.559,3.966-2.2,5.821a6.784,6.784,0,0,0,2.4,3.981c2.507,1.993,5.528,1.381,8.3.334a34.18,34.18,0,0,0,5.94-2.764,65.218,65.218,0,0,1,6.973-3.277c3.428-1.516,1.83-2.395.521-2.207a10.7,10.7,0,0,0-2.242.638c-.724.218-1.427.432-2.134.706a6.144,6.144,0,0,1-2.117.479c-.4-.141-.278-.4.028-.672a16.393,16.393,0,0,1,3.564-1.829c.914-.384,5.184-1.913,4.828-2.956-.442-1.3-3.477-.139-4.1.126q-.827.356-1.649.721a11.084,11.084,0,0,1-3.3,1.185c-.333.031-.716-.018-.857-.279-.293-.546.377-.936.857-1.176,1.757-.88,3.525-1.751,5.312-2.568,2.086-.956,3.531-1.749,3.357-2.439C3341.24,1937.482,3339.688,1937.229,3337.152,1938.51Z" transform="translate(-3196.251 -1934.182)" fill="#e4a084"/>
      <path id="Path_17281" data-name="Path 17281" d="M3218.885,2082.087a32.333,32.333,0,0,1,4.113,10.634,95.3,95.3,0,0,0,9.117-6.337c-1.722-6.637-2.975-14.13-1.986-19.793.817-4.679,2.305-10.9,3.872-16.933a55.743,55.743,0,0,1-10.176,3.453c-9.295,2.29-19.438,2.127-27.8-2.314-1.12,4.428,1.372,7.587,1.958,12.321C3206.869,2066.26,3214.294,2074.37,3218.885,2082.087Z" transform="translate(-3167.563 -1961.796)" opacity="0.09"/>
      <path id="Path_17282" data-name="Path 17282" d="M3246.7,2082q-.2-.586-.39-1.172l-1.878-5.649-.344-1.037-33.788,14.689s16.783.6,25.976,2.865A95.745,95.745,0,0,0,3246.7,2082Z" transform="translate(-3171.045 -1967.65)" fill="#736371"/>
    </g>
    <circle id="Ellipse_1212" data-name="Ellipse 1212" cx="6.445" cy="6.445" r="6.445" transform="translate(24.951 67.892)" fill="#a48fa0"/>
  </g>
  <path id="Path_17283" data-name="Path 17283" d="M3242.307,1983.47a3.079,3.079,0,0,0-2.526-3.023c-1.556-.126-2.949,1.375-3.108,3.352s.973,3.683,2.53,3.808a3.08,3.08,0,0,0,2.979-2.58l-4.194-1.121Z" transform="translate(-3046.45 -1899.893)" fill="#381911"/>
  <path id="Path_17284" data-name="Path 17284" d="M3213.975,1981.891a3.08,3.08,0,0,0-2.526-3.024c-1.557-.125-2.948,1.376-3.108,3.352s.973,3.682,2.53,3.808a3.081,3.081,0,0,0,2.98-2.581l-4.195-1.121Z" transform="translate(-3039.675 -1899.516)" fill="#381911"/>
  <g id="Group_11665" data-name="Group 11665" transform="translate(95.694 130.769)">
    <path id="Path_17285" data-name="Path 17285" d="M3116.22,2051.543l.332,4.414-3.875.279-.091-1.208-.132-1.809a5.228,5.228,0,0,1,4.8-5.61c5.059-.393,15.994-1.153,15.994-1.153a3.584,3.584,0,0,1,3.832,3.3,3.539,3.539,0,0,1-.533,2.154l-6.8,11.272-4.729.34c1.021-1.737,6.667-11,7.957-13.194C3132.981,2050.327,3118.572,2051.369,3116.22,2051.543Z" transform="translate(-3112.439 -2046.448)" fill="url(#linear-gradient)"/>
    <path id="Path_17286" data-name="Path 17286" d="M3134.885,2070.121l-.332-4.414,3.875-.278.091,1.208.132,1.809a5.228,5.228,0,0,1-4.8,5.609c-5.059.394-15.994,1.153-15.994,1.153a3.583,3.583,0,0,1-3.832-3.3,3.527,3.527,0,0,1,.533-2.154l6.8-11.271,4.727-.341c-1.019,1.738-6.667,11-7.956,13.195C3118.124,2071.338,3132.534,2070.3,3134.885,2070.121Z" transform="translate(-3112.815 -2049.244)" fill="url(#linear-gradient-2)"/>
  </g>
  <path id="Path_17287" data-name="Path 17287" d="M3183.3,2099.281a94.634,94.634,0,0,0,44.932-18.709c-1.237-7.492-2.03-15.526-1.081-20.963,2.259-12.94,9.654-37.214,9.654-37.214a122.878,122.878,0,0,0-32.967,5.392s-9.294,11.118-10.732,16.252,2.028,8.061,2.028,14.017C3195.137,2063.444,3185.2,2093.583,3183.3,2099.281Z" transform="translate(-3033.69 -1909.926)" fill="#e4a084"/>
  <path id="Path_17288" data-name="Path 17288" d="M3098.628,2050.133c.858,11.835,1.023,23.778,1.546,35.682a94.48,94.48,0,0,0,35.968,12.978q2.752-.259,5.5-.524c-1.5-25.173-3.731-50.327-4.945-75.509-3.308-1.834-7.74-2.076-12.227-1.889-.463.019-.913.042-1.346.066-4.2.233-18.267.521-26.217,3.064.347,2.238.5,4.448.627,6.307C3097.973,2036.918,3098.149,2043.518,3098.628,2050.133Z" transform="translate(-3013.032 -1909.55)" fill="#e79c83"/>
  <path id="Path_17289" data-name="Path 17289" d="M3089.533,2070.2c-.237,2.982-.538,5.99-.872,8.933a94.693,94.693,0,0,0,59.049,20.635c-.151-18.584-7.6-67.589-7.666-68.205-1.008-8.847-7.531-10.679-14.78-10.737a11.824,11.824,0,0,1-14.779,9.844,13.041,13.041,0,0,1-8.958-8.14c-6.286,1-11.674,2.681-12.149,5.6C3089.377,2028.139,3091.922,2040.2,3089.533,2070.2Z" transform="translate(-3011.059 -1909.551)" fill="#732f62"/>
  <path id="Path_17290" data-name="Path 17290" d="M3157.758,2110.551c-.082-10.105-2.321-29.2-4.357-44.625-2.173,16.172-9.778,31.625-22.722,40.678A95.1,95.1,0,0,0,3157.758,2110.551Z" transform="translate(-3021.106 -1920.336)" opacity="0.1"/>
  <path id="Path_17291" data-name="Path 17291" d="M3193.595,2097.236a94.759,94.759,0,0,0,35.318-17.372c-1.722-6.637-2.975-14.13-1.986-19.793,2.26-12.94,9.654-37.677,9.654-37.677a110.326,110.326,0,0,0-11.6.851,14.189,14.189,0,0,1-1.964,7.321c-1.888,3.221-5.9,6.387-9.883,5.247-4.084-1.171-5.376-5.24-5.149-9.314-1.447.392-2.906.818-4.369,1.287,0,0-9.294,11.118-10.733,16.252s2.028,8.523,2.028,14.479-12.556,34.412-12.556,34.412S3185.9,2095.688,3193.595,2097.236Z" transform="translate(-3033.463 -1909.926)" fill="#f6c231"/>
  <path id="Path_17292" data-name="Path 17292" d="M3234.835,2066.547a92.341,92.341,0,0,1,12.672,6.106q2.145-2.122,4.152-4.376c-1.286-4.452-2.746-10.191-2.746-13.146a261.1,261.1,0,0,1,1.9-27.437l-13.887-5.279c-.755-.246-5.488,10.276-5.823,10.975a51.809,51.809,0,0,0-5.041,18.435c-.269,3.385-.464,7.07,1.449,9.876C3229.186,2064.154,3232.1,2065.379,3234.835,2066.547Z" transform="translate(-3043.875 -1909.931)" fill="#a48fa0"/>
  <g id="Group_11666" data-name="Group 11666" transform="translate(193.052 94.19)">
    <path id="Path_17293" data-name="Path 17293" d="M3277.126,1998.372c-11.213,13.941-36.473,18.1-36.731,18.3l5.89,14.686c1.072-.824,25.68-11.61,37.921-25.991Z" transform="translate(-3240.395 -1998.372)" fill="#a48fa0"/>
  </g>
  <g id="Group_11668" data-name="Group 11668" transform="translate(71.895 47.199)">
    <path id="Path_17294" data-name="Path 17294" d="M3138.649,1977.929c1.954-.037,3.578,2.065,3.627,4.693s-1.5,4.789-3.45,4.825-3.578-2.066-3.626-4.694S3136.7,1977.965,3138.649,1977.929Z" transform="translate(-3094.082 -1946.492)" fill="#df8f78"/>
    <g id="Group_11667" data-name="Group 11667">
      <path id="Path_17295" data-name="Path 17295" d="M3111.636,2017.136a44.711,44.711,0,0,1,12.623-.692l-2.194-11.844c-.259-2.375-2.673-4.06-5.364-3.743l-1.246.147c-2.692.317-4.682,2.521-4.423,4.9l.373,11.3C3111.483,2017.183,3111.557,2017.154,3111.636,2017.136Z" transform="translate(-3088.298 -1951.966)" fill="#df8f78"/>
      <path id="Path_17296" data-name="Path 17296" d="M3101.909,1954.764l6.418-1.148c8.453-1.513,17,6.626,18.518,15.078l2.075,11.591A15.657,15.657,0,0,1,3116.3,1998.4l-6.418,1.149a15.659,15.659,0,0,1-18.119-12.617l-2.075-11.591C3088.177,1966.892,3093.457,1956.277,3101.909,1954.764Z" transform="translate(-3083.138 -1940.635)" fill="#e4a084"/>
      <path id="Path_17297" data-name="Path 17297" d="M3081.174,1954a2.732,2.732,0,0,1,2.069-.066,8.036,8.036,0,0,1-1.652-4.316,2.546,2.546,0,0,1,2.851,1.785,3.837,3.837,0,0,1,.075-3.052.571.571,0,0,1,.233-.288c.211-.1.45.06.621.222a8.246,8.246,0,0,1,.94,2.347c.522-.582,1.423-3.928,5.2-6.682,4.731-3.449,11.837-5.285,11.907-5.078a4.82,4.82,0,0,1,.033,2.818c2.716-3.574,6.909-4.6,11.373-5.082a8.144,8.144,0,0,1,.067,4.017s4.039-2.417,4.094-2.349c1.593,1.986,3.9,5.756,3.017,8.013a2.942,2.942,0,0,1,1.251-1.1,10.441,10.441,0,0,1,1.731,5.454,43.332,43.332,0,0,1-.283,10.294,34.478,34.478,0,0,1,.835,7.476s-.043-.274-.124-.688l.124.688c-.167.041-3.948-10.305-8.318-12.174-5.591-2.39-4.265,2.132-11.061,2.371-4.521.158-11.4-2.124-13.762,5.673-.709,2.339.607,6.449.164,8.677-.379,1.906-1.97,2.97-3.893,3.686a47.713,47.713,0,0,1-1.642-7.148h0c-2.848-3.973-4.754-9.872-4.4-13.854.019-.208-.09-.2-.09-.2S3081,1954.536,3081.174,1954Z" transform="translate(-3081.16 -1936.612)" fill="#582c1b"/>
      <path id="Path_17298" data-name="Path 17298" d="M3092.183,1965.88c1.708-2.771,3.711-6.089,7.239-6.373,2.8-.224,5.216,1.339,7.187,1.362,4.551.054,5.477-3.419,9.528-4.166,5.319-.982,8.267,5.1,10.472,9.305a34.945,34.945,0,0,1,.771,7.185s-.042-.274-.123-.688l.123.688c-.166.04-3.947-10.305-8.318-12.174-5.592-2.39-4.265,2.132-11.061,2.371-4.521.158-11.4-2.124-13.761,5.673-.709,2.339.606,6.449.164,8.677-.379,1.906-1.97,2.97-3.894,3.686l-.486-1.684a26.694,26.694,0,0,1-1.156-5.464S3090.66,1968.351,3092.183,1965.88Z" transform="translate(-3083.003 -1941.392)" opacity="0.07"/>
      <path id="Path_17299" data-name="Path 17299" d="M3086.946,1986.223c1.743-.865,4.1.334,5.264,2.679s.694,4.947-1.049,5.812-4.1-.335-5.264-2.679S3085.2,1987.088,3086.946,1986.223Z" transform="translate(-3082.14 -1948.408)" fill="#e4a084"/>
      <path id="Path_17300" data-name="Path 17300" d="M3089.383,1995.46a5.787,5.787,0,0,0,2.622-.257c3.074,9.276,9.957,12.257,20.388,10.677,11.784-1.784,13.885-8.086,15.751-14.317a15.656,15.656,0,0,1-12.838,15.685l-6.418,1.149a15.654,15.654,0,0,1-18.089-12.489c-1.7.552-3.814-.615-4.9-2.8a5.9,5.9,0,0,1-.634-2.689C3085.621,1992.457,3087.072,1995.105,3089.383,1995.46Z" transform="translate(-3082.142 -1949.478)" fill="#df8f78"/>
      <path id="Path_17301" data-name="Path 17301" d="M3110.306,1995.439l12.722-2.253a1.178,1.178,0,0,1,1.229,1.483c-.8,3.874-3.18,6.86-6.357,7.423s-6.345-1.441-8.3-4.827A1.22,1.22,0,0,1,3110.306,1995.439Z" transform="translate(-3087.919 -1950.137)" fill="#fff"/>
      <path id="Path_17302" data-name="Path 17302" d="M3089.076,1956.171a2.2,2.2,0,0,1,.083.314C3089.127,1956.381,3089.1,1956.276,3089.076,1956.171Z" transform="translate(-3083.053 -1941.289)" fill="#482316"/>
      <path id="Path_17303" data-name="Path 17303" d="M3106.364,1983.2c-.635-1.589-1.833-2.6-2.9-2.33-1.232.309-1.818,2.205-1.309,4.234s1.92,3.424,3.151,3.115c1.066-.267,1.648-1.721,1.456-3.422l-3.567.047Z" transform="translate(-3086.137 -1947.186)" fill="#381911"/>
      <path id="Path_17304" data-name="Path 17304" d="M3130.812,1979.348c-.634-1.59-1.833-2.6-2.9-2.329-1.232.309-1.818,2.2-1.309,4.233s1.92,3.425,3.151,3.116c1.065-.267,1.648-1.722,1.457-3.423l-3.568.047Z" transform="translate(-3091.983 -1946.264)" fill="#381911"/>
      <path id="Path_17305" data-name="Path 17305" d="M3087.283,1988.14s2.315-.394,3.635,2.458c-1.271-.468-1.132,1.048-1.132,1.048s.11,1.348.833,1.4-1.359-.282-1.359-.282a1.706,1.706,0,0,0,2.369.623c1.392-.921-.229-.644-.229-.644s-1.013.343-1.007-1.025c.061-1.036,1.272-.217,1.272-.217S3090.99,1986.824,3087.283,1988.14Z" transform="translate(-3082.624 -1948.878)" fill="#d48974"/>
      <path id="Path_17306" data-name="Path 17306" d="M3256.079,1989.213s-2.315-.394-3.634,2.459c1.271-.468,1.132,1.048,1.132,1.048s-.11,1.347-.833,1.4,1.358-.282,1.358-.282a1.7,1.7,0,0,1-2.368.623c-1.392-.92.229-.645.229-.645s1.012.343,1.007-1.024c-.062-1.036-1.272-.217-1.272-.217S3252.373,1987.9,3256.079,1989.213Z" transform="translate(-3121.814 -1949.135)" fill="#d48974"/>
    </g>
  </g>
</svg>
