<svg xmlns="http://www.w3.org/2000/svg" width="250" height="250" viewBox="0 0 250 250"><defs><style>.a{fill:#4ec1ef;}.b{opacity:0.1;}.c{fill:#fff;}.d{fill:#231f20;}.e{opacity:0.25;mix-blend-mode:overlay;isolation:isolate;}.f{opacity:0.03;}.g{fill:#e9ddc5;}.h{fill:#d5cab8;}.i{fill:#fff5e2;}</style></defs><circle class="a" cx="125" cy="125" r="125"/><g class="b" transform="translate(180.609 33.1)"><path class="c" d="M2015.026,940.362a124.025,124.025,0,0,0-40.582-91.9l-28.044,203.09A124.347,124.347,0,0,0,2015.026,940.362Z" transform="translate(-1946.4 -848.462)"/></g><g class="b" transform="translate(7.076 164.569)"><path class="d" d="M1848.024,1097.116a124.407,124.407,0,0,0,117.923-84.786H1730.1A124.407,124.407,0,0,0,1848.024,1097.116Z" transform="translate(-1730.101 -1012.33)"/></g><g class="e" transform="translate(8.633 28.604)"><circle class="c" cx="1.716" cy="1.716" r="1.716" transform="translate(46.715)"/><circle class="c" cx="1.716" cy="1.716" r="1.716" transform="translate(46.715 11.679)"/><circle class="c" cx="1.716" cy="1.716" r="1.716" transform="translate(46.715 23.358)"/><circle class="c" cx="1.716" cy="1.716" r="1.716" transform="translate(46.715 35.036)"/><circle class="c" cx="1.716" cy="1.716" r="1.716" transform="translate(46.715 46.715)"/><circle class="f" cx="1.716" cy="1.716" r="1.716" transform="translate(46.715 58.394)"/><circle class="c" cx="1.716" cy="1.716" r="1.716" transform="translate(46.715 70.073)"/><circle class="c" cx="1.716" cy="1.716" r="1.716" transform="translate(46.715 81.752)"/><circle class="c" cx="1.716" cy="1.716" r="1.716" transform="translate(46.715 93.431)"/><circle class="c" cx="1.716" cy="1.716" r="1.716" transform="translate(46.715 105.109)"/><circle class="c" cx="1.716" cy="1.716" r="1.716" transform="translate(46.715 116.788)"/><path class="c" d="M1778.253,843.106a1.717,1.717,0,1,1-2.436,2.051Z" transform="translate(-1740.696 -842.907)"/><circle class="c" cx="1.716" cy="1.716" r="1.716" transform="translate(35.036 11.679)"/><circle class="c" cx="1.716" cy="1.716" r="1.716" transform="translate(35.036 23.358)"/><circle class="c" cx="1.716" cy="1.716" r="1.716" transform="translate(35.036 35.036)"/><circle class="c" cx="1.716" cy="1.716" r="1.716" transform="translate(35.036 46.715)"/><circle class="c" cx="1.716" cy="1.716" r="1.716" transform="translate(35.036 58.394)"/><circle class="c" cx="1.716" cy="1.716" r="1.716" transform="translate(35.036 70.073)"/><circle class="c" cx="1.716" cy="1.716" r="1.716" transform="translate(35.036 81.752)"/><circle class="c" cx="1.716" cy="1.716" r="1.716" transform="translate(35.036 93.431)"/><circle class="c" cx="1.716" cy="1.716" r="1.716" transform="translate(35.036 105.109)"/><circle class="c" cx="1.716" cy="1.716" r="1.716" transform="translate(35.036 116.788)"/><path class="c" d="M1763.127,857.436a1.716,1.716,0,1,1-1.913,2.1C1761.209,859.52,1763.127,857.436,1763.127,857.436Z" transform="translate(-1737.809 -845.74)"/><circle class="c" cx="1.716" cy="1.716" r="1.716" transform="translate(23.358 23.358)"/><circle class="c" cx="1.716" cy="1.716" r="1.716" transform="translate(23.358 35.036)"/><circle class="c" cx="1.716" cy="1.716" r="1.716" transform="translate(23.358 46.715)"/><circle class="c" cx="1.716" cy="1.716" r="1.716" transform="translate(23.358 58.394)"/><circle class="c" cx="1.716" cy="1.716" r="1.716" transform="translate(23.358 70.073)"/><circle class="c" cx="1.716" cy="1.716" r="1.716" transform="translate(23.358 81.752)"/><circle class="c" cx="1.716" cy="1.716" r="1.716" transform="translate(23.358 93.431)"/><circle class="c" cx="1.716" cy="1.716" r="1.716" transform="translate(23.358 105.109)"/><circle class="c" cx="1.716" cy="1.716" r="1.716" transform="translate(23.358 116.788)"/><circle class="c" cx="1.716" cy="1.716" r="1.716" transform="translate(11.679 35.036)"/><circle class="c" cx="1.716" cy="1.716" r="1.716" transform="translate(11.679 46.715)"/><circle class="c" cx="1.716" cy="1.716" r="1.716" transform="translate(11.679 58.394)"/><circle class="c" cx="1.716" cy="1.716" r="1.716" transform="translate(11.679 70.073)"/><circle class="c" cx="1.716" cy="1.716" r="1.716" transform="translate(11.679 81.752)"/><circle class="c" cx="1.716" cy="1.716" r="1.716" transform="translate(11.679 93.431)"/><circle class="c" cx="1.716" cy="1.716" r="1.716" transform="translate(11.679 105.109)"/><circle class="c" cx="1.716" cy="1.716" r="1.716" transform="translate(11.679 116.788)"/><path class="c" d="M1734.569,901.208a1.717,1.717,0,1,1-1.324,3.162Z" transform="translate(-1732.279 -854.394)"/><circle class="c" cx="1.716" cy="1.716" r="1.716" transform="translate(0 58.394)"/><circle class="c" cx="1.716" cy="1.716" r="1.716" transform="translate(0 70.073)"/><circle class="c" cx="1.716" cy="1.716" r="1.716" transform="translate(0 81.752)"/><circle class="c" cx="1.716" cy="1.716" r="1.716" transform="translate(0 93.431)"/><circle class="c" cx="1.716" cy="1.716" r="1.716" transform="translate(0 105.109)"/><circle class="c" cx="1.716" cy="1.716" r="1.716" transform="translate(0 116.788)"/></g><g transform="translate(30.379 86.998)"><path class="g" d="M1821.223,1008.008l-16.934-38.782,154.838-53.584Z" transform="translate(-1768.073 -915.642)"/><path class="h" d="M1825.4,1008.008V976.549l137.9-60.907Z" transform="translate(-1772.246 -915.642)"/><path class="i" d="M1825.4,976.549l137.9-60.907-87.051,91.073Z" transform="translate(-1772.246 -915.642)"/><path class="i" d="M1795.364,969.226,1950.2,915.642l-191.054,37.922Z" transform="translate(-1759.147 -915.642)"/></g></svg>