<svg xmlns="http://www.w3.org/2000/svg" width="250" height="250" viewBox="0 0 250 250"><defs><style>.a{fill:#39b1b9;}.b{opacity:0.1;}.c{fill:#fff;}.d{opacity:0.05;}.e{fill:#1a1717;}.f{opacity:0.25;}.g{fill:#050606;opacity:0.03;isolation:isolate;}.h{fill:#fbc598;}.i{fill:#f9af7a;}.j{fill:#cf8a5d;}.k{fill:#fcceae;}</style></defs><circle class="a" cx="125" cy="125" r="125"/><g class="b" transform="translate(180.828 32.74)"><path class="c" d="M2584.733,2036.077a124.516,124.516,0,0,0-40.741-92.261L2515.838,2147.7A124.835,124.835,0,0,0,2584.733,2036.077Z" transform="translate(-2515.838 -1943.816)"/></g><g class="d" transform="translate(6.613 164.725)"><path class="e" d="M2417.925,2192.8a124.894,124.894,0,0,0,118.386-85.118H2299.539A124.893,124.893,0,0,0,2417.925,2192.8Z" transform="translate(-2299.539 -2107.684)"/></g><g class="f" transform="translate(8.176 28.227)"><circle class="c" cx="1.723" cy="1.723" r="1.723" transform="translate(46.899)"/><circle class="c" cx="1.723" cy="1.723" r="1.723" transform="translate(46.899 11.725)"/><circle class="c" cx="1.723" cy="1.723" r="1.723" transform="translate(46.899 23.449)"/><circle class="c" cx="1.723" cy="1.723" r="1.723" transform="translate(46.899 35.174)"/><circle class="c" cx="1.723" cy="1.723" r="1.723" transform="translate(46.899 46.898)"/><circle class="g" cx="1.723" cy="1.723" r="1.723" transform="translate(46.899 58.623)"/><circle class="c" cx="1.723" cy="1.723" r="1.723" transform="translate(46.899 70.347)"/><circle class="c" cx="1.723" cy="1.723" r="1.723" transform="translate(46.899 82.072)"/><circle class="c" cx="1.723" cy="1.723" r="1.723" transform="translate(46.899 93.797)"/><circle class="c" cx="1.723" cy="1.723" r="1.723" transform="translate(46.899 105.521)"/><circle class="c" cx="1.723" cy="1.723" r="1.723" transform="translate(46.899 117.246)"/><path class="c" d="M2347.7,1938.455a1.724,1.724,0,1,1-2.445,2.059Z" transform="translate(-2309.997 -1938.259)"/><circle class="c" cx="1.723" cy="1.723" r="1.723" transform="translate(35.174 11.725)"/><circle class="c" cx="1.723" cy="1.723" r="1.723" transform="translate(35.174 23.449)"/><circle class="c" cx="1.723" cy="1.723" r="1.723" transform="translate(35.174 35.174)"/><circle class="c" cx="1.723" cy="1.723" r="1.723" transform="translate(35.174 46.898)"/><circle class="c" cx="1.723" cy="1.723" r="1.723" transform="translate(35.174 58.623)"/><circle class="c" cx="1.723" cy="1.723" r="1.723" transform="translate(35.174 70.347)"/><circle class="c" cx="1.723" cy="1.723" r="1.723" transform="translate(35.174 82.072)"/><circle class="c" cx="1.723" cy="1.723" r="1.723" transform="translate(35.174 93.797)"/><circle class="c" cx="1.723" cy="1.723" r="1.723" transform="translate(35.174 105.521)"/><circle class="c" cx="1.723" cy="1.723" r="1.723" transform="translate(35.174 117.246)"/><path class="c" d="M2332.572,1952.79a1.723,1.723,0,1,1-1.92,2.111C2330.647,1954.882,2332.572,1952.79,2332.572,1952.79Z" transform="translate(-2307.155 -1941.048)"/><circle class="c" cx="1.723" cy="1.723" r="1.723" transform="translate(23.449 23.449)"/><circle class="c" cx="1.723" cy="1.723" r="1.723" transform="translate(23.449 35.174)"/><circle class="c" cx="1.723" cy="1.723" r="1.723" transform="translate(23.449 46.898)"/><circle class="c" cx="1.723" cy="1.723" r="1.723" transform="translate(23.449 58.623)"/><circle class="c" cx="1.723" cy="1.723" r="1.723" transform="translate(23.449 70.347)"/><circle class="c" cx="1.723" cy="1.723" r="1.723" transform="translate(23.449 82.072)"/><circle class="c" cx="1.723" cy="1.723" r="1.723" transform="translate(23.449 93.797)"/><circle class="c" cx="1.723" cy="1.723" r="1.723" transform="translate(23.449 105.521)"/><circle class="c" cx="1.723" cy="1.723" r="1.723" transform="translate(23.449 117.246)"/><circle class="c" cx="1.723" cy="1.723" r="1.723" transform="translate(11.725 35.174)"/><circle class="c" cx="1.723" cy="1.723" r="1.723" transform="translate(11.725 46.898)"/><circle class="c" cx="1.723" cy="1.723" r="1.723" transform="translate(11.725 58.623)"/><circle class="c" cx="1.723" cy="1.723" r="1.723" transform="translate(11.725 70.347)"/><circle class="c" cx="1.723" cy="1.723" r="1.723" transform="translate(11.725 82.072)"/><circle class="c" cx="1.723" cy="1.723" r="1.723" transform="translate(11.725 93.797)"/><circle class="c" cx="1.723" cy="1.723" r="1.723" transform="translate(11.725 105.521)"/><circle class="c" cx="1.723" cy="1.723" r="1.723" transform="translate(11.725 117.246)"/><path class="c" d="M2304.013,1996.562a1.724,1.724,0,0,1-1.158,3.247c-.058-.021-.116-.045-.172-.072Z" transform="translate(-2301.713 -1949.565)"/><circle class="c" cx="1.723" cy="1.723" r="1.723" transform="translate(0 58.623)"/><circle class="c" cx="1.723" cy="1.723" r="1.723" transform="translate(0 70.347)"/><circle class="c" cx="1.723" cy="1.723" r="1.723" transform="translate(0 82.072)"/><circle class="c" cx="1.723" cy="1.723" r="1.723" transform="translate(0 93.797)"/><circle class="c" cx="1.723" cy="1.723" r="1.723" transform="translate(0 105.521)"/><circle class="c" cx="1.723" cy="1.723" r="1.723" transform="translate(0 117.246)"/></g><g transform="translate(35.855 47.572)"><path class="h" d="M2501.17,2062.081s-3.8-8.682-7.179-9.577c0,0,2.29-5.286-.116-8.5s-7.634-9.36-8.859-10.031a25.346,25.346,0,0,0-4.226-1.372s2.58-3.275.778-5.844-7.456-10.113-10.532-10.612a20.171,20.171,0,0,0-6.1.035s3.06-7.452.648-10.781c-2.271-3.168-8.741-10.037-15.185-11.974-.373-.113-.76-.215-1.149-.294-6.8-1.4-15.974,9.765-21.28,16.918-2.722,3.691-4.724,6.305-5.771,8.431-1,1.968-1.15,3.5-.289,5.065,0,0-.486.426-1.341,1.129-.684.574-1.618,1.337-2.748,2.225a11.994,11.994,0,0,1-18.5-5.161,77.4,77.4,0,0,1-4.536-20.615c-.2-2.659.054-5.158.039-7.6a14.948,14.948,0,0,0-1.54-7.037c-4.069-7.741-10.373-16.345-17.368-21.686a13.442,13.442,0,0,0-5.88-2.34c-5.679-.943-12.2.894-12.213,7.3-.015,4.22,4.391,10.841,8.361,18.285,7.361,13.814,8.152,28.716,6.143,44.066a43.307,43.307,0,0,0-.581,8.254c.558,9.857,7.8,18.028,10.94,27.205a87.258,87.258,0,0,1,3.64,13.859c.31,1.873,1.823,9.176-.085,10.649,0,0-27.636,21.262-50.4,35.247a125.124,125.124,0,0,0,36.371,25.422,535.987,535.987,0,0,0,46.312-39.04s28.12,6.137,77.343-29.27C2495.87,2084.436,2501.82,2072.115,2501.17,2062.081Z" transform="translate(-2335.844 -1962.231)"/><g transform="translate(33.026 31.194)"><path class="i" d="M2467.37,2019.8s6.447-6.235,8.617-18.837c6.445,1.937,12.914,8.807,15.186,11.974,2.412,3.329-.647,10.781-.647,10.781a20.159,20.159,0,0,1,6.1-.035c3.076.5,8.73,8.043,10.532,10.612s-.778,5.844-.778,5.844a25.351,25.351,0,0,1,4.226,1.371c1.224.671,6.443,6.808,8.859,10.031s.116,8.5.116,8.5a5.686,5.686,0,0,1,2.568,1.913,35.8,35.8,0,0,1,4.61,7.665c.651,10.034-5.3,22.355-5.3,22.355s-2.048-8.6-11.736-17.86a3.9,3.9,0,0,1-1.6-4.333c.651-3.067-8.587-14.155-12-16.012s-2.969-2.728-2.824-5.227c.238-4.115-5.636-9.558-10.608-11.732,0,0-3.552-1.709-3.191-4.4C2480.094,2028.026,2474.016,2021.069,2467.37,2019.8Z" transform="translate(-2394.46 -2000.961)"/><path class="j" d="M2522.4,2086.35c1.985-3.572,7.893-12.043,7.893-12.043a5.685,5.685,0,0,1,2.568,1.913A68.12,68.12,0,0,1,2522.4,2086.35Z" transform="translate(-2405.167 -2015.232)"/><path class="j" d="M2505.328,2058.135c2.8-3.81,8.439-8.533,8.439-8.533a25.35,25.35,0,0,1,4.226,1.372C2514.02,2052.362,2505.328,2058.135,2505.328,2058.135Z" transform="translate(-2401.846 -2010.425)"/><path class="j" d="M2484.894,2038.506l9.041-9.354a20.159,20.159,0,0,1,6.1-.035C2495.608,2030.724,2484.894,2038.506,2484.894,2038.506Z" transform="translate(-2397.87 -2006.396)"/><path class="j" d="M2442.563,2033.327c-.862-1.562-.713-3.1.288-5.065,6.17-4.212,20.147-15.76,20.147-15.76A99.488,99.488,0,0,1,2442.563,2033.327Z" transform="translate(-2389.524 -2003.207)"/><path class="i" d="M2434.569,2032.237c-7.052,10.052-13.366,20.21-21.568,1.806-8.275-18.557-4.172-32.958-4.172-32.958.016,2.443-.236,4.943-.039,7.6a77.411,77.411,0,0,0,4.536,20.615,11.994,11.994,0,0,0,18.5,5.161C2432.951,2033.574,2433.885,2032.811,2434.569,2032.237Z" transform="translate(-2382.873 -2000.985)"/><path class="k" d="M2470.65,2029.105s-6.864-4.906-11.023-1.788-10.351,10.648-5.007,17.6C2459.746,2051.593,2483.745,2040.127,2470.65,2029.105Z" transform="translate(-2391.576 -2005.887)"/><path class="k" d="M2488.433,2049.9s-6.864-4.906-11.023-1.788-10.351,10.648-5.007,17.6C2477.529,2072.392,2501.528,2060.926,2488.433,2049.9Z" transform="translate(-2395.036 -2009.934)"/><path class="k" d="M2505.2,2072.969s-5.673-7.089-10.988-3.106c-3.721,2.789-8.936,9.958-2.925,17.822C2497.053,2095.23,2519.254,2085.95,2505.2,2072.969Z" transform="translate(-2398.58 -2014.131)"/><path class="k" d="M2520.988,2099.314s-5.447-6.806-10.55-2.982c-3.572,2.677-8.578,9.56-2.808,17.108C2513.166,2120.683,2534.479,2111.774,2520.988,2099.314Z" transform="translate(-2401.782 -2019.29)"/><path class="k" d="M2381.131,2053.4a23.783,23.783,0,0,0,3.115,14.58c4.308,7.342,12.368,12.333,10.93,1.092S2383.093,2041.547,2381.131,2053.4Z" transform="translate(-2377.652 -2010.36)"/><path class="i" d="M2376.848,2187.312c21.359-21.871,30.443-38.563,33.841-39.079,4.3-.646,15.816,1.64,15.816,1.64a535.7,535.7,0,0,1-46.218,38.969l-.094.072Z" transform="translate(-2376.848 -2029.593)"/></g></g></svg>