<svg xmlns="http://www.w3.org/2000/svg" width="33" height="33" viewBox="0 0 33 33"><defs><style>.a{fill:rgba(239,243,250,0);}.b{fill:#eff3fa;}</style></defs><rect class="a" width="33" height="33"/><g transform="translate(-1379.334 -353.072)"><path class="b" d="M1381.785,369.1h7.565a.864.864,0,0,0,.86-.863v-11.74a.865.865,0,0,0-.863-.864h-7.562a.865.865,0,0,0-.864.864v11.74A.863.863,0,0,0,1381.785,369.1Zm.861-1.728v-10.01h5.835v10.01Z"/><path class="b" d="M1410.149,355.63h-16.34a.834.834,0,0,0-.808.853v11.749a.843.843,0,0,0,.819.865h16.341a.83.83,0,0,0,.808-.853h0V356.495a.843.843,0,0,0-.819-.865Zm-.8,1.729v10.01h-14.731v-10.01Z"/><path class="b" d="M1410.119,372.181h-7.6a.828.828,0,0,0-.838.8v10.881a.792.792,0,0,0,.8.784h7.626a.85.85,0,0,0,.864-.791v-10.89a.843.843,0,0,0-.3-.6A.712.712,0,0,0,1410.119,372.181Zm-.88,1.565v9.331H1403.4v-9.332Z"/><path class="b" d="M1398.11,372.181h-16.392a.8.8,0,0,0-.8.787v10.891a.78.78,0,0,0,.24.555.847.847,0,0,0,.55.229h16.408a.8.8,0,0,0,.8-.785v-10.9A.8.8,0,0,0,1398.11,372.181Zm-.815,1.565v9.331H1382.54v-9.332Z"/></g></svg>